<?xml version="1.0" encoding="UTF-8"?>
<svg id="Layer_1" xmlns="http://www.w3.org/2000/svg" version="1.1" viewBox="0 0 160 160">
  <!-- Generator: Adobe Illustrator 30.2.1, SVG Export Plug-In . SVG Version: 2.1.1 Build 1)  -->
  <defs>
    <style>
      .st0 {
        display: none;
        fill: #e75625;
      }

      .st1 {
        fill: #e75625;
      }
    </style>
  </defs>
  <path class="st0" d="M132.49,43.61c-.29-.45-1.85-1.88-2.89-1.88-.1,0-.91.14-1.33.08-.37,0-.87-.08-1.2,0-.26.06-.65.28-.76.28s-.43-.14-.54-.14h-1.2c-.11,0-.38-.18-.54-.18-.11,0-.61.18-.79.24l-2.21.08c-.11,0-1.08-.18-1.22-.18-.11,0-.3-.04-.39,0-.27.14-.65.55-.76.55s-1.45-.23-2.1-.37h-.51c-.87,0-.9.23-1.2.23-.14,0-.71-.37-.79-.37-.11,0-.82.28-1.19.28-.55.09-1.23-.04-1.73.23-.04,0-.04.04-.15.04s-.87-.14-.98-.14c-.34,0-.42-.02-.68.14h-.02c-.56-.41-1.2-.77-1.72-.77-.1,0-.9.14-1.34.08-.36,0-.85-.08-1.18,0-.26.06-.65.28-.76.28s-.43-.14-.54-.14h-1.2c-.11,0-.4-.18-.54-.18-.11,0-.61.18-.79.24l-2.21.08c-.11,0-1.09-.18-1.23-.18-.1,0-.29-.04-.4,0-.25.14-.65.55-.76.55s-1.44-.23-2.1-.37h-.49c-.87,0-.9.23-1.2.23-.14,0-.71-.37-.79-.37-.11,0-.84.28-1.2.28-.54.09-1.22-.04-1.74.23-.03,0-.03.04-.14.04-.1,0-.87-.14-.97-.14-.35,0-.42-.02-.7.12-.56-.39-1.2-.75-1.73-.75-.1,0-.9.14-1.33.08-.36,0-.87-.08-1.2,0-.25.06-.65.28-.74.28-.11,0-.44-.14-.55-.14h-1.19c-.11,0-.41-.18-.55-.18-.1,0-.62.18-.79.24l-2.2.08c-.11,0-1.09-.18-1.23-.18-.11,0-.29-.04-.4,0-.25.14-.65.55-.76.55s-1.45-.23-2.1-.37h-.5c-.87,0-.9.23-1.19.23-.14,0-.73-.37-.79-.37-.11,0-.84.28-1.2.28-.54.09-1.23-.04-1.74.23-.03,0-.03.04-.14.04s-.87-.14-.98-.14c-.34,0-.42-.02-.7.12-.55-.39-1.19-.75-1.72-.75-.11,0-.9.14-1.33.08-.36,0-.87-.08-1.2,0-.25.06-.65.28-.76.28s-.44-.14-.53-.14h-1.19c-.11,0-.41-.18-.55-.18-.11,0-.62.18-.79.24l-2.2.08c-.11,0-1.09-.18-1.23-.18-.11,0-.3-.04-.4,0-.25.14-.66.55-.77.55-.1,0-1.44-.23-2.09-.37h-.5c-.87,0-.91.23-1.19.23-.16,0-.73-.37-.8-.37-.11,0-.83.28-1.19.28-.55.09-1.23-.04-1.74.23-.03,0-.03.04-.14.04s-.87-.14-.98-.14c-.34,0-.42-.02-.7.14h0c-.55-.41-1.2-.77-1.71-.77-.11,0-.9.14-1.34.08-.35,0-.87-.08-1.19,0-.25.06-.65.28-.76.28s-.44-.14-.55-.14h-1.18c-.11,0-.4-.18-.54-.18-.11,0-.62.18-.81.24l-2.2.08c-.1,0-1.07-.18-1.23-.18-.11,0-.28-.04-.39,0-.26.14-.65.55-.76.55s-1.44-.23-2.09-.37h-.52c-.87,0-.9.23-1.18.23-.15,0-.73-.37-.8-.37-.11,0-.83.28-1.18.28-.55.09-1.25-.04-1.74.23-.03,0-.03.04-.14.04s-.87-.14-.98-.14c-.48,0-.44-.04-1.09.34-.36.22-.79.18-1.05.32-.47.31-1.23.77-1.56,1.32-.21.42-.25,1.17-.25,1.31,0,.11.11,1,.22,1.28.11.36.44.69.68,1.5.08.28.87,1.03,1.09,1.03l2.56-.37c.11,0,1.17.23,1.28.23s.49.04.68,0c.25-.06.51-.23.71-.23,1.36-.1,3.02-.14,3.98-.14.48,0,1.24-.04,1.35-.04l1.62.22h.17c.1.1.24.19.25.23,0,.05-.12.22-.11.27l.08.56s-.15.21-.14.28c0,.05.22.26.29.34l.23,1.02s-.11.53-.1.6c0,.05-.02.14.02.18.16.11.61.23.62.28,0,.05-.15.71-.24,1.03l.03.24c.06.41.3.39.32.53,0,.08-.33.39-.33.43,0,.05.34.34.36.52.14.24.04.58.36.77,0,.02.04,0,.05.07,0,.05-.09.42-.08.47.02.16,0,.2.19.3h0c-.38.33-.7.68-.67.93,0,.04.2.4.17.61.03.17-.02.41.08.56.08.11.32.26.33.31,0,.05-.11.23-.1.28l.08.56s-.16.21-.15.28c0,.05.22.26.3.33l.22,1.03s-.1.53-.09.6c0,.05-.03.14.02.18.16.1.61.23.61.28,0,.05-.14.71-.24,1.04l.04.23c.05.41.3.39.32.53,0,.06-.33.37-.33.42s.33.35.36.52c.13.24.04.58.35.78,0,.02.05.01.05.06,0,.05-.08.43-.07.48.02.16,0,.2.16.31-.36.32-.68.67-.64.91,0,.06.2.41.17.62.02.17-.02.42.08.56.07.11.32.26.33.31s-.11.22-.11.27l.08.56s-.15.22-.14.28c0,.05.22.27.29.34l.23,1.02s-.11.54-.1.6c0,.05-.02.14.03.19.15.1.6.23.61.28,0,.05-.14.71-.24,1.03l.03.23c.06.41.3.39.32.53,0,.08-.33.4-.33.43,0,.05.34.35.36.52.14.24.05.58.36.78,0,.01.04,0,.05.06,0,.05-.08.42-.08.47.03.16,0,.2.17.31-.36.32-.68.67-.64.92,0,.05.2.4.16.61.03.17-.02.42.08.56.08.11.33.27.34.32,0,.05-.12.22-.11.27l.08.56s-.15.21-.14.28c0,.05.22.26.29.33l.23,1.03s-.11.53-.1.6c0,.05-.02.14.02.18.16.1.61.23.62.28,0,.05-.15.71-.24,1.04l.03.23c.06.41.3.39.32.53,0,.08-.33.39-.33.42,0,.05.34.35.36.52.14.24.04.58.36.78,0,.02.04.01.05.06,0,.05-.09.43-.08.48.02.16,0,.2.19.31-.39.32-.7.67-.67.91,0,.06.2.41.17.62.03.17-.02.42.08.56.08.11.32.26.33.32,0,.05-.11.22-.1.27l.08.55s-.16.22-.15.28c0,.05.22.27.3.35l.22,1.02s-.11.53-.09.6c0,.05-.03.13.02.18.16.1.6.23.61.28s-.14.71-.24,1.03l.04.24c.02.15.06.24.12.3h0c-.11.11-.2.23-.27.35-.15.32-.17.9-.17,1.01,0,.09.08.78.15.99.08.28.3.54.47,1.16.06.22.6.8.75.8l1.77-.29c.08,0,.8.18.88.18.07,0,.34.03.47,0,.17-.05.35-.18.49-.18.08,0,.17,0,.26-.02-.84.42-1.66.89-2.37,1.33-.2.15-.3.52-.56.75-.15.11-.6.26-.85.45-.15.18-.15.52-.3.74-.25.42-.75.83-1.1,1.24.05.26.2.49.05.83-.1.18-.36.26-.41.37-.05.08-.1.22-.1.34,0,.11.26.41.26.52s0,.19-.11.26c-.1.15-.35.3-.55.57-.1.11-.25.56-.65.67-.1.34-.2,1.12-.2,1.54,0,.63.95,1.23,1.56,1.68.1.04.15.23.15.34s-.76,1.09-.76,1.2c0,.41.96.82,1.06,1.16.3.82-.4,1.8.3,2.77.25.38,1,.72,1.35,1.13.51.49.3,1.31.81,1.91.1.15.75.37,1.05.56.55.38,1.15.79,1.56,1.2.2.19.3.56.6.71.25.12.75.12,1,.19.46.11.76.52,1.01.79.25.22.7.45,1.05.56.25.11.9.22,1.31.37.3.15.55.53.9.6.6.12,1.76.04,1.96.04.1,0,.85.04,1.25,0,.35-.04.96-.19,1.11-.19s1.5.12,1.65.12.4,0,.55-.04c.26-.04.66-.19.96-.3.2-.04.4-.23.6-.3.8-.3,1.71-.6,2.46-.86.35-.15.8-.38,1.2-.6.31-.19.71-.53,1.06-.75.15-.12.35-.45.55-.71.15-.12.5-.27.7-.49.3-.26.61-.6.86-.9.3-.34.4-.83.6-1.2.15-.26.55-.67.75-1.01.3-.6.55-1.24.81-1.84.15-.41.3-1.27.5-2.1.05-.15.05-.37.1-.56.25-.48.05-.9,0-1.23,0-.34.15-.23.15-.27,0-.11-.2-.11-.1-.41,0-.11.05-.22.05-.3-.05-.9-.2-1.87-.45-2.81-.1-.37-.36-.82-.56-1.27-.2-.42-.4-.98-.65-1.46-.1-.19-.4-.49-.55-.75-.2-.42-.3-.94-.55-1.43-.1-.15-.35-.3-.5-.45-.26-.26-.51-.67-.86-.97-.25-.26-.85-.64-1.2-.83-.25-.18-.61-.6-.91-.78-.12-.07-.25-.14-.39-.21.17-.01.33-.01.47-.01.32,0,.84-.03.92-.03l1.11.17h1.48c.1,0,.47-.06.55-.06.07,0,.97.32,1.44.53.08.03.13.11.2.21.25-.39.57-.53.97-.53.11,0,.58.21.65.21.32,0,.78-.18,1.15-.35.14.14.28.25.34.25l1.78-.29c.07,0,.79.18.87.18.07,0,.35.03.47,0,.18-.05.35-.18.5-.18.92-.08,2.07-.11,2.74-.11.33,0,.85-.03.93-.03l1.12.17h1.47c.09,0,.47-.06.54-.06.08,0,.98.32,1.45.53.08.03.13.11.2.21.25-.39.57-.53.97-.53.11,0,.58.21.65.21.32,0,.79-.19,1.16-.36.14.15.28.26.34.26l1.77-.29c.07,0,.79.18.87.18.07,0,.35.03.47,0,.18-.05.35-.18.5-.18.92-.08,2.07-.11,2.74-.11.33,0,.85-.03.93-.03l1.12.17h.58c-.68.36-1.32.73-1.9,1.09-.21.15-.31.52-.56.75-.15.11-.6.26-.85.45-.15.18-.15.52-.3.75-.25.41-.75.82-1.11,1.23.05.26.21.49.05.83-.1.18-.35.26-.4.37-.05.08-.1.23-.1.34s.25.41.25.52c0,.12,0,.19-.1.27-.1.15-.35.3-.55.56-.1.11-.25.56-.65.67-.1.34-.2,1.13-.2,1.54,0,.64.95,1.24,1.55,1.69.1.03.15.22.15.33s-.75,1.09-.75,1.2c0,.41.96.83,1.06,1.16.3.83-.41,1.8.3,2.78.25.37,1,.71,1.35,1.12.5.49.3,1.31.8,1.91.11.15.76.38,1.06.56.55.38,1.15.79,1.56,1.2.2.19.3.56.6.71.25.12.75.12,1,.19.45.11.75.53,1.01.79.25.22.7.45,1.05.56.25.11.9.23,1.3.37.31.16.56.53.91.61.6.11,1.75.03,1.96.03.1,0,.85.04,1.25,0,.35-.03.95-.19,1.1-.19.16,0,1.51.12,1.66.12s.4,0,.55-.04c.25-.04.66-.19.96-.3.2-.04.4-.23.6-.3.8-.3,1.71-.6,2.46-.86.35-.15.8-.38,1.2-.6.3-.19.71-.53,1.06-.75.15-.11.35-.45.55-.71.15-.11.5-.27.7-.49.3-.26.6-.6.85-.9.31-.34.41-.82.61-1.2.15-.26.55-.67.75-1.01.3-.6.55-1.24.8-1.84.15-.41.3-1.27.51-2.09.05-.15.05-.38.1-.57.25-.48.05-.9,0-1.23,0-.34.15-.23.15-.27,0-.11-.2-.11-.1-.41,0-.11.05-.22.05-.3-.05-.9-.2-1.87-.46-2.81-.1-.37-.35-.82-.55-1.27-.2-.41-.4-.98-.65-1.46-.1-.19-.4-.49-.55-.75-.2-.42-.3-.94-.55-1.43-.11-.15-.36-.3-.51-.45-.25-.26-.5-.67-.85-.97-.25-.26-.85-.64-1.2-.82-.12-.09-.25-.21-.39-.35.14-.09.3-.15.47-.17h.18s.13.03.23.08h.03c.19.03.37.06.47.06.09.01.18.01.29.01.41-.11.89-.34,1.14-.47.17-.11.3-.67.66-.82.17-.07.45-.17.52-.32.15-.22.38-.57.42-.71.04-.09.07-.22.09-.35-.05-.1-.12-.21-.1-.28.04-.36.1-.76.17-1.13h0c.06-.35.13-.66.19-.89.06-.23.12-.62.13-.68l.42-.75.27-1.06c.01-.07,0-.36.02-.42,0-.05.59-.6.95-.87.05-.04.16-.05.31-.07-.47-.31-.58-.59-.51-.87,0-.07.38-.35.39-.41.06-.22-.09-.62-.24-.94.2-.05.36-.12.37-.16l-.05-1.38s.38-.51.4-.57c.01-.05.1-.24.08-.34-.02-.13-.17-.31-.14-.42.07-.69.24-1.52.36-2.01.06-.23.12-.62.13-.68l.42-.75.27-1.06c.01-.07,0-.36.02-.42.01-.05.59-.59.95-.87.05-.04.16-.05.31-.07-.47-.31-.59-.59-.51-.87.02-.08.38-.35.39-.4.06-.24-.09-.63-.24-.94.2-.06.36-.13.37-.17l-.05-1.38c.02-.05.38-.51.4-.56,0-.06.1-.25.08-.34-.02-.15-.17-.32-.14-.43.07-.69.24-1.52.36-2.01.06-.23.12-.62.13-.67l.42-.76.27-1.06c0-.07,0-.36.02-.41.01-.06.59-.6.95-.87.05-.05.16-.06.31-.08-.47-.31-.59-.58-.51-.87.02-.08.38-.35.39-.4.06-.23-.11-.64-.26-.95.22-.06.38-.12.4-.17l-.06-1.37s.38-.51.4-.56c.01-.06.1-.25.08-.34-.02-.15-.17-.32-.14-.43.07-.68.24-1.52.36-2.01.06-.23.12-.62.13-.67l.42-.76.27-1.06c.01-.07,0-.36.02-.41.01-.06.59-.6.95-.87.05-.05.16-.06.31-.08-.47-.31-.59-.58-.51-.88.02-.07.38-.34.39-.39.06-.23-.11-.64-.26-.95.22-.05.38-.12.4-.17l-.06-1.37s.38-.51.4-.56c0-.06.1-.25.08-.35-.02-.14-.17-.31-.14-.41.07-.69.24-1.53.36-2.02.06-.23.12-.62.13-.67l.42-.76.22-.86c.06-.02.12-.05.17-.07.25-.14.44-.87.95-1.07.25-.08.65-.22.76-.41.22-.28.54-.74.6-.91.22-.52.3-1.63.3-1.76,0-.14-.08-.87-.22-1.15h0ZM40.76,55.69s.17-.57.16-.62,0-.24-.05-.33c-.07-.1-.27-.19-.29-.3-.18-.61-.34-1.38-.4-1.84-.03-.22-.12-.57-.13-.62l.11-.79-.14-1c0-.07-.13-.31-.13-.36,0-.02.03-.11.09-.23.44-.03,1.07-.25,1.57-.45.2.17.4.31.49.31l2.58-.37c.1,0,1.15.23,1.26.23s.51.04.68,0c.25-.06.52-.23.73-.23,1.34-.1,3-.14,3.98-.14.46,0,1.22-.04,1.33-.04l1.62.22h2.14c.14,0,.68-.08.79-.08.06,0,.47.12.94.27v.68c0,.07-.12.31-.12.42,0,.07.12.47.14.61l.07,1.7c0,.1-.11.84-.11.96,0,.1-.03.24,0,.31.09.21.32.51.32.58,0,.09-.14,1.12-.21,1.63v.4c0,.08,0,.15,0,.21-.12-.02-.22-.03-.25-.03-.25,0-.3,0-.51.08h0c-.4-.24-.88-.45-1.26-.45-.08,0-.66.08-.98.05-.26,0-.64-.05-.88,0-.18.03-.48.16-.56.16s-.32-.08-.4-.08h-.86c-.08,0-.3-.11-.4-.11-.08,0-.46.11-.6.14l-1.62.05c-.07,0-.78-.11-.9-.11-.08,0-.2-.02-.28,0-.2.08-.48.32-.56.32s-1.07-.13-1.54-.21h-.38c-.64,0-.66.13-.87.13-.11,0-.54-.21-.59-.21-.08,0-.61.16-.87.16-.4.05-.91-.03-1.28.13-.02,0-.02.03-.1.03s-.64-.08-.72-.08c-.24,0-.3,0-.46.05,0,0-.55-1.15-.55-1.15ZM42.85,68.63c0-.08.22-.43.21-.49-.03-.21-.33-.5-.59-.71.18-.13.31-.23.31-.28l-.55-1.15s.16-.57.16-.62c0-.05,0-.25-.05-.32-.08-.12-.27-.21-.29-.31-.19-.61-.34-1.38-.4-1.84-.04-.22-.13-.57-.13-.62l.11-.8-.11-.74.7-.08c.08,0,.85.13.93.13s.37.03.5,0c.19-.03.38-.13.53-.13.99-.06,2.21-.08,2.92-.08.35,0,.91-.03.99-.03l1.19.13h1.58c.1,0,.5-.05.58-.05s1.04.24,1.54.4c.08.03.12.08.2.16.28-.29.62-.4,1.04-.4.11,0,.62.16.7.16.33,0,.83-.13,1.22-.26.15.1.3.18.37.18l1.89-.21h.03c-.03.2-.08.54-.08.61,0,.28-.03.33.07.54v.02c-.26.42-.47.91-.47,1.33,0,.07.09.7.07,1.03,0,.28-.07.68,0,.93.02.19.16.49.16.59,0,.09-.09.32-.09.42v.93c0,.07-.12.3-.12.42,0,.07.12.47.14.61l.07,1.62s-.07.03-.12.05h0c-.37-.23-.82-.42-1.17-.42-.07,0-.61.08-.91.05-.24,0-.59-.05-.81,0-.17.03-.45.14-.52.14-.08,0-.3-.07-.38-.07h-.8c-.08,0-.28-.09-.37-.09-.08,0-.43.09-.55.12l-1.51.04c-.06,0-.73-.09-.84-.09-.07,0-.19-.02-.26,0-.18.07-.45.3-.52.3-.08,0-.99-.13-1.43-.21h-.35c-.6,0-.62.13-.81.13-.11,0-.5-.2-.55-.2-.07,0-.56.15-.81.15-.37.05-.84-.02-1.18.13-.03,0-.03.02-.1.02s-.59-.08-.67-.08c-.16,0-.23,0-.32.01.06-.13.13-.24.19-.34.03-.06.13-.11.26-.18-.54-.09-.75-.28-.79-.55h0ZM58.32,91.66c0,.11-.23.56-.23.6,0,.1.16.66.16.94.06.38,0,.87.11,1.25-.28,0-.58,0-.82.14-.02,0-.02.04-.09.04-.08,0-.6-.11-.68-.11-.23,0-.29-.02-.48.11h0c-.38-.33-.83-.6-1.18-.6-.07,0-.62.11-.92.06-.25,0-.6-.06-.83,0-.17.05-.45.21-.52.21-.08,0-.3-.1-.38-.1h-.81c-.07,0-.28-.14-.37-.14-.08,0-.43.14-.56.18l-1.52.06c-.07,0-.74-.13-.85-.13-.07,0-.19-.03-.27,0-.18.1-.45.42-.52.42-.08,0-.98-.18-1.43-.28-.03-.18-.05-.35-.07-.48-.04-.23-.13-.58-.13-.63l.11-.78-.14-1.01c0-.06-.13-.31-.14-.36,0-.05.33-.72.56-1.08.04-.06.13-.1.26-.17-.54-.1-.75-.29-.79-.56,0-.09.22-.43.22-.49-.03-.21-.32-.49-.57-.71.16-.12.29-.23.28-.28l-.55-1.15s.17-.57.16-.62v-.02h.1c.07-.01.75.11.82.11s.32.02.44,0c.16-.03.33-.12.46-.12.87-.05,1.94-.07,2.56-.07.31,0,.8-.02.87-.02l1.04.11h1.38c.09,0,.44-.04.51-.04s.91.21,1.35.35c.07.02.11.07.18.14.24-.26.54-.35.91-.35.09,0,.54.14.61.14.29,0,.73-.12,1.07-.23.13.09.26.16.32.16l.21-.02.03.74c0,.07-.11.84-.11.96,0,.07-.03.21,0,.3.09.19.32.49.32.59,0,.09-.14,1.12-.21,1.63v.37c0,.68.14.7.14.94h0ZM58.42,78.89c-.26.44-.47.95-.47,1.35,0,.07.09.7.07,1.03,0,.28-.07.67,0,.93,0,.04,0,.08.02.12-.14-.05-.28-.08-.4-.08-.07,0-.58.07-.86.04-.23,0-.56-.04-.77,0-.16.03-.42.14-.49.14s-.28-.07-.35-.07h-.76c-.07,0-.26-.09-.35-.09-.07,0-.4.09-.52.12l-1.42.04c-.06,0-.69-.09-.79-.09-.07,0-.18-.02-.25,0-.17.07-.42.28-.49.28s-.93-.12-1.35-.19h-.33c-.56,0-.58.12-.76.12-.1,0-.47-.19-.52-.19-.07,0-.53.14-.76.14-.35.05-.8-.02-1.12.12-.02,0-.02.02-.09.02s-.56-.07-.63-.07c-.27,0-.28-.01-.55.11l.08-.56-.14-1c0-.07-.13-.31-.13-.36,0-.07.32-.73.56-1.08.03-.06.12-.11.26-.18-.55-.1-.76-.29-.8-.56,0-.08.22-.42.22-.48-.03-.22-.31-.5-.57-.71.17-.12.29-.24.29-.28l-.55-1.15c0-.06.16-.58.15-.63,0-.05,0-.24-.04-.32-.08-.11-.28-.2-.29-.31-.17-.54-.3-1.2-.38-1.66l.79-.09c.07,0,.79.13.87.13.07,0,.33.02.46,0,.17-.04.35-.13.49-.13.92-.05,2.06-.08,2.71-.08.33,0,.85-.02.93-.02l1.1.12h1.46c.1,0,.47-.04.54-.04.08,0,.97.22,1.44.37.07.02.11.07.19.15.25-.28.57-.37.96-.37.1,0,.57.14.65.14.31,0,.77-.12,1.13-.24.14.1.28.17.34.17l.98-.11v.29c0,.65.14.7.14.91,0,.12-.23.56-.23.63s.16.63.16.91c.07.42-.02.96.14,1.35,0,.03.05.03.05.12,0,.07-.09.65-.09.75,0,.26-.03.3.07.54h0ZM78.24,63.64c0,.28-.07.67,0,.93.03.19.17.49.17.58,0,.1-.1.33-.1.42v.94c0,.07-.11.3-.11.42,0,.07.11.47.14.61l.07,1.7s-.02.19-.05.36c-.12-.02-.24-.04-.33-.06h-.34c-.6,0-.62.13-.82.13-.09,0-.5-.2-.54-.2-.07,0-.57.15-.82.15-.37.05-.83-.02-1.18.13-.02,0-.02.02-.1.02-.07,0-.59-.08-.67-.08-.23,0-.28-.01-.47.07-.39-.22-.82-.41-1.18-.41-.08,0-.62.08-.91.05-.25,0-.6-.05-.82,0-.17.03-.44.14-.52.14-.07,0-.3-.07-.36-.07h-.82c-.07,0-.27-.09-.37-.09-.07,0-.42.09-.54.12l-1.5.04c-.08,0-.75-.09-.84-.09-.08,0-.2-.02-.28,0-.17.07-.44.3-.52.3-.07,0-.98-.13-1.43-.21h-.34c-.08,0-.15,0-.21.01v-.77c0-.12-.04-.54-.04-.64,0-.07.25-1.07.42-1.61.02-.09.09-.14.16-.23-.3-.28-.42-.63-.42-1.1,0-.09.16-.63.16-.72,0-.35-.14-.86-.28-1.26.12-.19.21-.35.21-.42l-.23-1.99s0-.1.02-.21c.32,0,.61,0,.84,0,.34,0,.9-.03.98-.03l1.18.13h1.58c.1,0,.5-.05.58-.05s1.04.24,1.54.4c.08.03.14.08.22.16.26-.29.6-.4,1.03-.4.11,0,.61.16.69.16.34,0,.84-.13,1.22-.26.15.1.3.18.37.18l1.89-.21c.08,0,.85.13.93.13s.37.03.5,0c.19-.03.38-.13.54-.13.65-.04,1.4-.06,2.04-.07-.01.06-.01.1-.01.12,0,.28-.02.33.07.54v.02c-.26.42-.47.91-.47,1.33,0,.07.1.7.07,1.03h0ZM62.41,51.08c0-.07.25-1.08.42-1.61,0-.03,0-.05.02-.07.24-.07.48-.16.7-.25.2.17.4.31.5.31l2.57-.37c.11,0,1.15.23,1.26.23s.51.04.69,0c.26-.06.51-.23.73-.23,1.33-.1,2.99-.14,3.97-.14.47,0,1.23-.04,1.34-.04l1.63.22h2.07v.31c0,.07-.11.3-.11.42,0,.07.11.47.14.61l.07,1.7c0,.1-.12.84-.12.96,0,.09-.02.23,0,.3.09.21.33.52.33.59,0,.09-.14,1.12-.21,1.63v.4c0,.3.03.47.06.58-.55,0-.59.13-.79.13-.11,0-.54-.21-.58-.21-.08,0-.62.16-.88.16-.4.05-.91-.03-1.28.13-.02,0-.02.03-.1.03s-.64-.08-.72-.08c-.25,0-.31,0-.52.07-.41-.23-.88-.44-1.26-.44-.08,0-.67.08-.99.05-.26,0-.63-.05-.87,0-.19.03-.48.16-.56.16s-.32-.08-.39-.08h-.88c-.08,0-.3-.11-.4-.11-.08,0-.46.11-.58.14l-1.62.05c-.08,0-.8-.11-.9-.11-.08,0-.22-.02-.3,0-.18.08-.48.32-.56.32s-1.06-.13-1.54-.21h-.38c0-.37,0-.71,0-.98,0-.37-.05-.95-.05-1.02l.14-1.27v-1.65c0-.12-.04-.54-.04-.63ZM78.65,94.17c-.07-.01-.16-.02-.22,0-.17.1-.45.42-.52.42-.08,0-1-.18-1.45-.29h-.34c-.6,0-.62.19-.83.19-.09,0-.5-.29-.54-.29-.08,0-.58.21-.83.21-.37.08-.84-.03-1.2.18-.02,0-.02.04-.09.04-.08,0-.6-.11-.68-.11-.23,0-.29-.02-.48.09-.39-.31-.83-.58-1.19-.58-.07,0-.62.11-.92.06-.25,0-.6-.06-.83,0-.17.05-.45.21-.52.21-.08,0-.3-.1-.37-.1h-.82c-.07,0-.28-.14-.37-.14-.08,0-.43.14-.55.18l-1.52.06c-.08,0-.75-.13-.85-.13-.07,0-.2-.03-.28,0-.17.1-.45.42-.52.42-.02,0-.12-.02-.25-.04.04-.25.09-.55.09-.6,0-.07.02-.38,0-.54-.02-.19-.14-.38-.14-.54-.05-1.05-.07-2.33-.07-3.08,0-.37-.05-.96-.05-1.05l.14-1.26v-1.56c.54-.02,1.06-.03,1.43-.03.3,0,.79-.02.86-.02l1.04.11h1.38c.09,0,.44-.04.51-.04s.91.21,1.35.35c.07.02.12.07.19.14.23-.26.53-.35.9-.35.1,0,.54.14.61.14.3,0,.73-.12,1.07-.23.13.09.26.16.32.16l1.66-.19c.07,0,.74.12.81.12s.33.02.44,0c.17-.03.33-.12.47-.12.86-.05,1.93-.07,2.56-.07.1,0,.22,0,.34-.01l.02.43c0,.07-.12.84-.12.96,0,.07-.02.21,0,.3.09.19.33.49.33.58,0,.1-.14,1.12-.21,1.64v.37c0,.68.14.7.14.94,0,.11-.24.56-.24.6,0,.1.17.66.17.94.07.42-.03.95.14,1.35,0,.02.04.02.04.09v.09h-.01ZM78.57,77.79c0,.25-.02.3.07.53-.26.45-.47.96-.47,1.36,0,.07.1.7.07,1.02,0,.29-.07.68,0,.94.03.19.17.49.17.58,0,.05-.05.2-.08.31-.26-.03-.55-.08-.75-.11h-.32c-.56,0-.58.12-.77.12-.09,0-.47-.19-.51-.19-.07,0-.54.14-.77.14-.35.05-.79-.02-1.12.12-.02,0-.02.02-.09.02s-.56-.07-.63-.07c-.22,0-.27-.01-.45.06-.36-.2-.77-.38-1.11-.38-.07,0-.58.07-.86.04-.23,0-.56-.04-.77,0-.16.03-.42.14-.49.14s-.28-.07-.34-.07h-.77c-.07,0-.26-.09-.35-.09-.07,0-.4.09-.51.12l-1.42.04c-.07,0-.7-.09-.79-.09-.07,0-.19-.02-.26,0-.16.07-.42.28-.49.28s-.93-.12-1.35-.19h-.32c-.26,0-.41.03-.51.05,0-.06,0-.13,0-.2,0-.12.16-.63.16-.72,0-.35-.14-.87-.28-1.26.12-.17.21-.35.21-.42l-.23-1.99c0-.09.14-.91.14-.98,0-.09.02-.4,0-.54-.02-.21-.14-.39-.14-.56-.04-.84-.06-1.82-.06-2.56.43-.01.83-.02,1.13-.02.32,0,.84-.02.91-.02l1.1.12h1.47c.09,0,.46-.04.54-.04.07,0,.96.22,1.43.37.07.02.13.07.2.15.25-.28.56-.37.96-.37.1,0,.57.14.64.14.32,0,.78-.12,1.14-.24.14.1.27.17.34.17l1.76-.2c.07,0,.78.13.86.13.07,0,.35.02.46,0,.18-.04.35-.13.5-.13.86-.05,1.92-.08,2.6-.08.01.56.14.61.14.81,0,.11-.24.56-.24.63s.17.63.17.91c.07.42-.03.96.14,1.35,0,.03.04.03.04.12,0,.07-.09.65-.09.75h0ZM98.87,61.82v.02c-.26.42-.47.91-.47,1.33,0,.07.09.7.07,1.03,0,.28-.07.68,0,.93.02.19.16.49.16.59,0,.09-.09.32-.09.42v.93c0,.07-.12.3-.12.42,0,.07.12.47.14.61l.06,1.37h-.09c-.07,0-.27-.09-.37-.09-.07,0-.41.09-.54.12l-1.5.04c-.08,0-.75-.09-.84-.09-.07,0-.2-.02-.28,0-.17.07-.44.3-.52.3-.07,0-.98-.13-1.43-.21h-.34c-.59,0-.61.13-.81.13-.1,0-.49-.2-.54-.2-.08,0-.58.15-.82.15-.37.05-.84-.02-1.19.13-.02,0-.02.02-.09.02-.08,0-.6-.08-.67-.08-.23,0-.29-.01-.48.07-.38-.22-.82-.41-1.18-.41-.07,0-.61.08-.91.05-.24,0-.59-.05-.81,0-.17.03-.45.14-.51.14-.08,0-.3-.07-.37-.07h-.82c-.07,0-.28-.09-.37-.09-.07,0-.31.06-.46.1v-1.27c0-.11-.05-.53-.05-.63,0-.07.26-1.07.42-1.61.03-.09.1-.14.17-.23-.31-.28-.42-.63-.42-1.1,0-.09.16-.63.16-.72,0-.35-.14-.87-.28-1.26.12-.19.21-.35.21-.42l-.18-1.55h.49c.1,0,.5-.05.58-.05s1.04.24,1.54.4c.08.03.14.08.22.16.26-.29.61-.4,1.03-.4.11,0,.62.16.7.16.34,0,.84-.14,1.23-.27.15.11.29.19.36.19l1.89-.21c.08,0,.84.13.92.13s.38.03.5,0c.2-.03.38-.13.54-.13.98-.06,2.2-.08,2.92-.08.34,0,.9-.03.98-.03l1.2.13h1.06c-.02.2-.07.53-.07.59,0,.28-.03.33.07.54h0ZM82.63,50.51s.16-.67.3-1.19h.01c.16,0,.84.28.95.28.47,0,1.15-.26,1.68-.47.2.19.4.33.5.33l2.56-.37c.11,0,1.15.23,1.25.23.11,0,.52.04.69,0,.26-.06.51-.23.73-.23,1.33-.1,2.99-.14,3.97-.14.47,0,1.23-.04,1.34-.04l1.63.22h.3v.87c0,.07-.12.31-.12.42,0,.07.12.47.14.61l.07,1.7c0,.1-.12.84-.12.96,0,.1-.02.24,0,.31.1.21.33.51.33.58,0,.09-.14,1.12-.21,1.63v.41h-.24c-.08,0-.8-.1-.9-.1-.08,0-.22-.02-.3,0-.18.08-.47.32-.55.32s-1.07-.13-1.55-.21h-.36c-.64,0-.66.13-.88.13-.1,0-.52-.21-.58-.21-.08,0-.62.16-.88.16-.4.05-.9-.03-1.28.13-.02,0-.02.03-.1.03s-.64-.08-.72-.08c-.25,0-.31,0-.51.07-.41-.23-.88-.44-1.27-.44-.08,0-.66.08-.98.05-.26,0-.64-.05-.88,0-.18.03-.48.16-.55.16-.08,0-.32-.08-.4-.08h-.88c-.08,0-.29-.11-.4-.11-.08,0-.45.11-.58.14l-1.23.04c-.01-.59-.02-1.13-.02-1.53,0-.37-.05-.96-.05-1.03l.14-1.26v-1.65c0-.12-.05-.54-.05-.64h0ZM98.77,91.66c0,.11-.23.56-.23.6,0,.1.16.66.16.94.05.29.02.63.05.94-.15.07-.32.16-.37.16-.08,0-.3-.1-.38-.1h-.82c-.08,0-.28-.14-.38-.14-.07,0-.41.14-.54.18l-1.52.06c-.08,0-.75-.13-.85-.13-.07,0-.2-.03-.28,0-.17.1-.45.42-.52.42-.08,0-1-.18-1.45-.29h-.34c-.6,0-.62.19-.83.19-.09,0-.49-.29-.54-.29-.08,0-.58.21-.83.21-.37.08-.84-.03-1.2.18-.02,0-.02.04-.09.04-.08,0-.6-.11-.68-.11-.23,0-.29-.02-.48.09-.39-.31-.83-.58-1.19-.58-.08,0-.62.11-.92.06-.25,0-.6-.06-.83,0-.17.05-.45.21-.51.21-.08,0-.3-.1-.38-.1h-.14c.04-.26.12-.74.12-.82,0-.07.02-.37,0-.53-.03-.19-.14-.38-.14-.54-.05-1.05-.07-2.34-.07-3.08,0-.38-.05-.96-.05-1.05l.14-1.26v-.77c.19.04.37.09.51.14.07.02.12.07.19.14.23-.26.53-.35.9-.35.1,0,.54.14.61.14.3,0,.74-.13,1.08-.24.13.1.26.17.32.17l1.65-.19c.07,0,.74.12.81.12s.33.02.44,0c.17-.03.33-.12.47-.12.86-.05,1.93-.07,2.56-.07.3,0,.79-.02.86-.02l1.05.11h1.37c.09,0,.44-.04.51-.04s.91.21,1.35.35c.07.02.12.07.19.14.23-.26.53-.35.91-.35.02,0,.08.01.14.02l.03.77c0,.07-.12.84-.12.96,0,.07-.02.21,0,.3.1.19.33.49.33.59,0,.09-.14,1.12-.21,1.63v.37c0,.68.14.7.14.94h0ZM98.87,78.89c-.26.44-.47.95-.47,1.35,0,.07.09.7.07,1.03,0,.28-.07.67,0,.93,0,.03.01.06.02.09-.16.04-.39.13-.45.13-.07,0-.28-.07-.35-.07h-.77c-.07,0-.26-.09-.35-.09-.07,0-.39.09-.51.12l-1.42.04c-.07,0-.7-.09-.79-.09-.07,0-.19-.02-.26,0-.16.07-.42.28-.49.28s-.93-.12-1.35-.19h-.32c-.56,0-.58.12-.77.12-.09,0-.46-.19-.51-.19-.07,0-.54.14-.77.14-.35.05-.79-.02-1.12.12-.02,0-.02.02-.09.02s-.56-.07-.63-.07c-.22,0-.27-.01-.45.06-.36-.2-.77-.38-1.11-.38-.07,0-.58.07-.86.04-.23,0-.56-.04-.77,0-.16.03-.42.14-.48.14-.07,0-.28-.07-.35-.07h-.61c-.08-.19-.11-.41-.11-.64,0-.12.16-.63.16-.72,0-.36-.14-.87-.28-1.27.12-.16.21-.35.21-.42l-.23-1.98c0-.09.14-.91.14-.98,0-.09.02-.4,0-.54-.03-.21-.14-.4-.14-.56-.03-.62-.05-1.33-.06-1.95.22.04.97.23,1.38.36.07.02.12.07.2.15.24-.28.56-.37.95-.37.11,0,.57.14.65.14.32,0,.78-.13,1.14-.25.14.11.28.18.34.18l1.75-.2c.08,0,.79.13.86.13.08,0,.35.02.47,0,.18-.04.35-.13.5-.13.91-.05,2.04-.08,2.71-.08.32,0,.84-.02.91-.02l1.12.12h1.45c.09,0,.47-.04.54-.04.05,0,.6.13,1.06.26v.14c0,.65.14.7.14.91,0,.12-.23.56-.23.63s.16.63.16.91c.07.42-.02.96.14,1.35,0,.03.05.03.05.12,0,.07-.09.65-.09.75,0,.26-.03.3.07.54h0ZM113.49,86.48c-.48.17-.91.4-.98.66-.01.05.03.48-.09.68-.04.18-.18.41-.15.6.03.13.2.39.18.44-.01.06-.19.19-.2.24l-.15.59s-.23.15-.25.22c0,.06.1.36.14.46l-.2,1.12s-.31.49-.33.57c-.01.05-.07.13-.05.19.11.17.47.46.45.52-.01.05-.41.66-.63.95l-.06.25c-.03.11-.03.2-.02.28l-1.23.05c-.08,0-.75-.13-.85-.13-.07,0-.2-.03-.27,0-.18.1-.45.42-.52.42-.08,0-1-.18-1.45-.29h-.35c-.6,0-.62.19-.83.19-.09,0-.49-.29-.54-.29-.08,0-.57.21-.83.21-.37.08-.84-.03-1.19.18-.03,0-.03.04-.1.04-.01,0-.04,0-.07-.01.04-.26.1-.61.1-.67,0-.07.02-.38,0-.54-.02-.19-.14-.38-.14-.54-.05-1.05-.07-2.33-.07-3.08,0-.37-.05-.96-.05-1.05l.14-1.26v-1.4h.02c.07,0,.33.02.45,0,.16-.03.32-.12.46-.12.86-.05,1.93-.07,2.56-.07.3,0,.79-.02.86-.02l1.05.11h1.37c.1,0,.44-.04.51-.04s.91.21,1.35.35c.07.02.12.07.19.14.23-.26.54-.35.91-.35.09,0,.53.14.6.14.06,0,.12,0,.18-.01,0,.08,0,.13.08.26h0ZM116.23,75.52c-.46.18-.89.41-.96.67-.01.05.03.48-.09.68-.04.18-.18.42-.15.6.03.14.2.39.18.45-.01.05-.19.18-.2.22l-.15.6s-.23.15-.25.22c-.01.06.1.36.14.46l-.2,1.11c-.01.06-.31.5-.33.57,0,.05-.07.14-.05.2.11.16.47.46.45.52-.01.03-.12.21-.27.42h-.02c-.07,0-.59.07-.86.04-.24,0-.56-.04-.77,0-.17.03-.42.14-.49.14s-.28-.07-.35-.07h-.77c-.07,0-.25-.09-.35-.09-.07,0-.39.09-.51.12l-1.42.04c-.07,0-.7-.09-.79-.09-.07,0-.19-.02-.25,0-.17.07-.42.28-.49.28s-.93-.12-1.35-.19h-.33c-.56,0-.58.12-.77.12-.09,0-.46-.19-.51-.19-.07,0-.53.14-.77.14-.16.02-.33.02-.51.03-.02-.08-.02-.16-.02-.25,0-.12.16-.63.16-.72,0-.35-.14-.87-.28-1.26.12-.17.21-.35.21-.42l-.23-1.99c0-.09.14-.91.14-.98,0-.09.02-.4,0-.54-.02-.21-.14-.39-.14-.56-.04-.76-.06-1.65-.06-2.36l1.22-.14c.07,0,.78.13.86.13.07,0,.35.02.47,0,.17-.04.34-.13.49-.13.91-.05,2.05-.08,2.72-.08.31,0,.83-.02.91-.02l1.11.12h1.45c.11,0,.47-.04.54-.04.08,0,.97.22,1.44.37.07.02.12.07.2.15.24-.28.57-.37.96-.37.1,0,.56.14.64.14.17,0,.37-.04.58-.09.02.08.02.15.01.2.03.3-.19.61.02.93,0,.01.04.02.02.08-.01.05-.24.4-.26.45-.04.17-.07.2.03.38h0ZM119.18,62.74c.03.29-.19.6.02.92,0,.02.04.03.02.08,0,.05-.24.4-.26.45-.04.17-.07.21.03.38-.46.18-.89.41-.96.67-.01.05.03.48-.09.68-.04.18-.18.42-.15.6.03.14.2.39.18.44,0,.05-.19.18-.2.23l-.15.6s-.23.16-.25.23c-.01.05.1.35.14.45l-.17.93c-.12-.03-.23-.05-.34-.05-.08,0-.63.08-.92.05-.25,0-.59-.05-.81,0-.18.03-.45.14-.52.14-.08,0-.3-.07-.37-.07h-.82c-.07,0-.27-.09-.37-.09-.08,0-.41.09-.54.12l-1.51.04c-.07,0-.74-.09-.84-.09-.07,0-.2-.02-.26,0-.18.07-.45.3-.52.3s-.99-.13-1.43-.21h-.35c-.6,0-.62.13-.82.13-.09,0-.49-.2-.54-.2-.07,0-.56.15-.82.15-.37.05-.83-.02-1.17.13-.03,0-.03.02-.11.02-.07,0-.59-.08-.67-.08-.23,0-.28-.01-.46.08h-.01c-.08-.05-.16-.09-.24-.13v-.86c0-.12-.04-.54-.04-.64,0-.07.25-1.07.42-1.61.02-.09.09-.14.16-.23-.3-.28-.42-.63-.42-1.1,0-.09.16-.63.16-.72,0-.35-.14-.86-.28-1.26.12-.19.21-.35.21-.42l-.23-1.98c.19.05.5.14.56.14.34,0,.84-.14,1.23-.27.15.11.3.19.37.19l1.88-.21c.08,0,.84.13.92.13s.38.03.52,0c.18-.03.36-.13.52-.13.98-.06,2.21-.08,2.92-.08.35,0,.91-.03.99-.03l1.19.13h1.57c.11,0,.5-.05.58-.05s1.04.24,1.54.4c.08.03.14.08.22.16.26-.29.61-.4,1.04-.4.08,0,.38.09.56.14l-.04.18c-.11.43.12.51.08.65-.02.07-.46.26-.47.3-.01.06.17.49.12.67h0ZM122.27,49.91l-.06.26c-.11.43.12.51.08.65-.02.07-.46.27-.47.3-.01.06.17.48.12.67.03.29-.19.6.02.91,0,.03.04.04.02.09-.01.06-.24.4-.26.45-.04.17-.07.21.05.38h0c-.48.18-.91.41-.98.67,0,.05.03.48-.09.69-.04.17-.18.4-.14.58.02.15.19.4.17.45-.01.05-.19.18-.2.24l-.05.21c-.2,0-.43.03-.59,0-.28,0-.64-.05-.88,0-.2.03-.48.16-.56.16s-.32-.08-.4-.08h-.88c-.08,0-.29-.11-.4-.11-.08,0-.45.11-.58.14l-1.62.05c-.08,0-.8-.11-.91-.11-.08,0-.21-.02-.28,0-.19.08-.48.32-.56.32s-1.06-.13-1.54-.21h-.38c-.64,0-.66.13-.88.13-.1,0-.52-.21-.58-.21-.08,0-.6.16-.88.16-.4.05-.9-.03-1.26.13-.04,0-.04.03-.12.03s-.64-.08-.72-.08c-.25,0-.31,0-.5.08h-.01c-.41-.24-.88-.45-1.27-.45-.07,0-.66.08-.98.05-.26,0-.63-.05-.87,0h-.01c-.01-.31-.01-.59-.01-.82,0-.37-.05-.95-.05-1.02l.14-1.27v-1.65c0-.12-.04-.54-.04-.63,0-.06.18-.82.35-1.36.02,0,.03.02.04.02.11.04.19.14.3.28.36-.52.82-.7,1.41-.7.14,0,.83.28.93.28.47,0,1.15-.26,1.68-.47.2.19.4.33.5.33l2.56-.37c.11,0,1.15.23,1.26.23s.51.04.7,0c.24-.06.49-.23.71-.23,1.34-.1,3-.14,3.98-.14.46,0,1.22-.04,1.33-.04l1.63.22h2.13c.08,0,.29-.03.47-.04-.13.2-.4.6-.57.82h0Z"/>
  <path class="st1" d="M113.8,100.1s0-.01-.01-.01h3.63l22.85-58.32H18.27c-2.05,0-3.57,1.49-3.57,3.5s1.52,3.51,3.57,3.51h13.84l7.71,51.31h5.02c-3.06,2.55-4.95,6.43-4.95,10.92,0,8.05,6.01,14.14,13.98,14.14s14.02-6.09,14.02-14.14c0-4.49-1.89-8.37-4.96-10.92h32.77c-3.06,2.55-4.95,6.43-4.95,10.91,0,8.06,6.01,14.14,13.98,14.14s14.02-6.08,14.02-14.14c0-4.48-1.89-8.35-4.95-10.9ZM102.79,48.78h24.28l-3.28,8.41h-21v-8.41ZM102.79,61.17h19.45l-3.34,8.54h-16.11v-8.54ZM102.79,73.69h14.56l-3.33,8.53h-11.23v-8.53ZM102.79,86.2h9.68l-3.19,8.16h-6.49v-8.16ZM82.6,48.78h16.21v8.41h-16.21v-8.41ZM82.6,61.17h16.21v8.54h-16.21v-8.54ZM82.6,73.69h16.21v8.53h-16.21v-8.53ZM58.43,94.36h-10.51l-1.23-8.16h11.74v8.16ZM58.43,82.22h-12.34l-1.28-8.53h13.62v8.53ZM58.43,69.71h-14.22l-1.28-8.54h15.5v8.54ZM58.43,57.19h-16.1l-1.27-8.41h17.37v8.41ZM78.62,94.36h-16.21v-8.16h16.21v8.16ZM78.62,82.22h-16.21v-8.53h16.21v8.53ZM78.62,69.71h-16.21v-8.54h16.21v8.54ZM78.62,57.19h-16.21v-8.41h16.21v8.41ZM82.6,94.36v-8.16h16.21v8.16h-16.21Z"/>
  <path class="st1" d="M113.79,100.09s.01.01.01.01h3.62s-3.63-.01-3.63-.01Z"/>
</svg>