<?xml version="1.0" encoding="UTF-8"?>
<svg id="Layer_1" xmlns="http://www.w3.org/2000/svg" version="1.1" viewBox="0 0 160 160">
  <!-- Generator: Adobe Illustrator 30.2.1, SVG Export Plug-In . SVG Version: 2.1.1 Build 1)  -->
  <defs>
    <style>
      .st0 {
        fill: #e75625;
      }

      .st0, .st1 {
        display: none;
      }

      .st1, .st2 {
        fill: #e75625;
      }
    </style>
  </defs>
  <path class="st0" d="M65.98,116.97l-37.06-37.06,7.89-7.89,28.23,28.23,57.21-57.21,8.84,8.84-65.1,65.1h0Z"/>
  <path class="st0" d="M85.67,89.9c-.32.32-2.45,2.66-3.83,4.05-2.87,2.87-7.67,7.88-11.39,12.03-.64.64-.96,1.81-1.6,2.66-.43.64-1.7,1.7-2.02,2.02s-3.94,2.87-4.26,3.19l-6.71,8.41c-.64.64-4.69,1.28-5.54.85-2.66-1.17-4.37-.96-5.54-1.49-.96-.32-3.3-2.02-3.62-2.34s-1.92-2.13-2.24-3.73c-.32-2.24.85-5.54,1.49-7.67.43-1.07,1.81-2.24,2.34-3.83,1.06-2.77,1.06-2.56,2.45-3.94.32-.32,2.88-2.24,3.2-2.56s.21-.43.32-.53c.85-2.13,3.19-3.83,4.58-5.64,1.07-1.07,2.56-3.83,2.88-4.15.21-.21,2.77-1.06,3.19-1.49.85-.85.43-1.49,2.98-4.05l1.49-1.49c2.24-1.6,6.71-5.01,7.03-5.33s.53-2.45.96-3.51c.21-.43.85-.85,1.17-1.17.43-.43,3.73-2.88,4.05-3.19l6.28-6.71c.43-.64,1.49-2.56,1.81-2.88.43-.43,1.7-.85,2.02-1.17l3.51-3.51c.32-.32,1.6-.96,1.92-1.28s.96-2.02,1.6-2.87c.75-1.17,2.45-2.45,3.51-3.51,1.38-1.17,3.41-3.83,3.73-4.15,3.09-3.09,10.97-4.37,12.89-4.15,1.07.21,2.98,1.7,3.3,2.02s2.66,3.09,3.2,4.9c.21.64.32,2.66.32,3.94.11.75-.75,2.24-1.28,3.19-1.07,1.92.11,4.15-.32,5.22-.96,2.02-2.98,6.18-4.9,8.09-.32.32-2.98,1.7-3.41,2.13-1.7,1.7-2.66,3.52-2.56,5.75-.64,0-1.07,0-1.49.21-2.66,1.38-7.46,4.26-7.77,4.58s-1.7,2.13-2.13,2.56l-6.28,6.28s-5.33,4.26-5.33,4.26Z"/>
  <path class="st0" d="M70.1,85.67c-.32-.32-2.66-2.45-4.05-3.83-2.87-2.87-7.88-7.67-12.03-11.39-.64-.64-1.81-.96-2.66-1.6-.64-.43-1.7-1.7-2.02-2.02s-2.87-3.94-3.19-4.26l-8.41-6.71c-.64-.64-1.28-4.69-.85-5.54,1.17-2.66.96-4.37,1.49-5.54.32-.96,2.02-3.3,2.34-3.62s2.13-1.92,3.73-2.24c2.24-.32,5.54.85,7.67,1.49,1.07.43,2.24,1.81,3.83,2.34,2.77,1.06,2.56,1.06,3.94,2.45.32.32,2.24,2.88,2.56,3.2s.43.21.53.32c2.13.85,3.83,3.19,5.64,4.58,1.07,1.07,3.83,2.56,4.15,2.88.21.21,1.06,2.77,1.49,3.19.85.85,1.49.43,4.05,2.98l1.49,1.49c1.6,2.24,5.01,6.71,5.33,7.03s2.45.53,3.51.96c.43.21.85.85,1.17,1.17.43.43,2.88,3.73,3.19,4.05l6.71,6.28c.64.43,2.56,1.49,2.88,1.81.43.43.85,1.7,1.17,2.02l3.51,3.51c.32.32.96,1.6,1.28,1.92s2.02.96,2.87,1.6c1.17.75,2.45,2.45,3.51,3.51,1.17,1.38,3.83,3.41,4.15,3.73,3.09,3.09,4.37,10.97,4.15,12.89-.21,1.07-1.7,2.98-2.02,3.3s-3.09,2.66-4.9,3.2c-.64.21-2.66.32-3.94.32-.75.11-2.24-.75-3.19-1.28-1.92-1.07-4.15.11-5.22-.32-2.02-.96-6.18-2.98-8.09-4.9-.32-.32-1.7-2.98-2.13-3.41-1.7-1.7-3.52-2.66-5.75-2.56,0-.64,0-1.07-.21-1.49-1.38-2.66-4.26-7.46-4.58-7.77s-2.13-1.7-2.56-2.13l-6.28-6.28-4.26-5.33h0Z"/>
  <polygon class="st1" points="135.61 122.12 108.37 122.12 79.31 93.07 50.26 122.12 24.39 122.12 66.46 77.84 28.7 37.87 55.77 37.87 80.86 62.96 105.95 37.87 131.64 37.87 93.54 77.84 135.61 122.12"/>
  <path d="M156.54,29.95h.31v-.32l-.31.32Z"/>
  <polygon class="st2" points="156.54 29.95 71.84 118.17 56.33 134.55 5.03 80 32.1 80 57.19 105.09 62.4 99.88 130.3 29.95 156.54 29.95"/>
</svg>