<?xml version="1.0" encoding="UTF-8"?>
<svg id="Layer_1" xmlns="http://www.w3.org/2000/svg" version="1.1" viewBox="0 0 2898.13 1061.39">
  <!-- Generator: Adobe Illustrator 30.2.1, SVG Export Plug-In . SVG Version: 2.1.1 Build 1)  -->
  <defs>
    <style>
      .st0 {
        fill: #e85521;
      }

      .st1 {
        isolation: isolate;
      }

      .st2 {
        fill: #e75625;
      }

      .st3 {
        display: none;
        fill: #0e1429;
      }
    </style>
  </defs>
  <rect class="st3" width="2753" height="1061.39"/>
  <g>
    <g id="needle">
      <path class="st0" d="M425.5,505.66l-146.91-144.86-66.02-63.32-15.96-15.17c-10.39-9.89-21.16-20.09-32.93-31.17-3.55-3.34-6.92-6.52-10.12-9.54-5.8-5.47-10.8-10.2-15.35-14.41-7.59-6.86-13.9-11.44-17.86-14.07-4.39-2.91-6.99-4.21-7.09-4.26l-1.47-.73.73,1.47c.05.11,1.34,2.7,4.26,7.09,2.64,3.96,7.21,10.27,14.06,17.85,4.21,4.54,8.93,9.54,14.4,15.33,3.03,3.2,6.22,6.58,9.56,10.14,11.08,11.76,21.27,22.53,31.17,32.93l17.84,18.78,60.64,63.2,144.86,146.91,5.67,5.75,2.8-2.8c-.4-.4-4.19-4.22-5.69-5.73-22.07-22.23-44.76-45.12-50.02-50.49-16.51-16.88-91.21-92.02-107.47-109.15-15.74-16.58-31.51-33.13-47.28-49.68-15.26-16.02-30.55-32.02-45.82-48.02-9.76-10.24-19.35-20.66-29-31.01.72.73,1.45,1.46,2.17,2.2,12.99,13.15,26.04,26.25,39.19,39.26,15.71,15.54,31.39,31.11,47.02,46.72,16.47,16.44,32.89,32.93,49.39,49.34,16.9,16.82,92.3,91.57,109.4,108.19,4.11,3.99,20.75,20.48,37.74,37.32,1.51,1.5,5.33,5.29,5.73,5.69l.02-.02c1.39-1.39,8.06-8.06,8.06-8.06l-5.75-5.67h0ZM758.22,835.46c-.86-3.4-2.16-6.69-3.98-9.75-1.05-1.78-2.28-3.48-3.65-5.06-.95-1.09-1.99-2.16-3.09-3.29-.54-.56-1.1-1.13-1.66-1.72l-11.14-11.55-13.24-13.49c-11.43-11.52-21.96-21.95-32.23-31.88-12.52-12.13-26.11-24.91-38.94-36.91l-26.06-24.23-1.64-1.52c1.09-1.2,2.23-2.46,3.43-3.78,3.3-3.65,17.55-21.18,21.66-24.55,3.99-3.27,8.55-6.33,13.04-8.86,11.21-6.32,18.32-7.54,30.67-4.1-.37.26-.74.52-1.1.8-1.81,1.45-3.41,4.01-3.62,6.34-.19,2.17.95,4.42,2.3,6.05,2.07,2.5,5.06,3.76,8.25,3.97,3.36.22,6.58-.83,9.07-3.14,2.11-1.96,3.44-4.6,3.52-7.49.13-4.59-2.57-8.82-5.68-11.97-8.16-8.27-19.74-11.58-31.09-11.61-25.16-.05-47.47,20.46-64.34,37.14-3.06-2.52-6.43-5.89-15.34-13.61-.68-.59-2.68.49-5.32,2.55-9.12-8.57-18.63-17.56-28.16-26.73l-47.96-46.19-66.64-65.7-5.21-5.14-8.11,8.11c1.78,1.76,3.51,3.49,5.2,5.16,1.67,1.65,127.52,128.94,139.5,141.23-.03.03-.06.07-.1.1-2.2,2.36-4.29,4.77-6.07,7.01-8.71-9.11-17.44-18.19-26.13-27.32-16.6-17.44-33.35-34.73-50.01-52.09-7.24-7.54-61.02-61.8-62.66-63.45-1.68-1.69-3.4-3.43-5.16-5.19l-2.83,2.83,5.14,5.21,66.05,66.99,45.84,47.6c9.36,9.73,18.55,19.45,27.28,28.75-.04.05-.07.1-.11.15-2.05,3-3.08,5.3-2.29,6.12,6.95,7.33,7.02,7.31,14.23,14.38-10.42,14.83-22.53,31.46-39.4,39.52-11.66,5.56-21.18,4.63-32.99.41.4-.08.8-.17,1.19-.27,2.58-.67,5.04-1.86,6.35-4.29.9-1.66.95-3.58.37-5.35-.98-2.98-3.56-5.45-6.33-6.81-2.72-1.33-6-1.75-8.9-.73-2.86,1.01-5.29,3.34-6.54,6.1-1.52,3.34-1.44,7.57-.06,10.95,3.01,7.37,12.2,13.07,19.17,16.09,13.71,5.95,26.91,4.21,40.42-1.09,16.42-7.24,29.91-21.46,42.35-34.73,1.69-1.8,3.25-3.45,5.02-5.34.05-.05.09-.1.13-.15l1.53,1.64,23.29,25.04c11.98,12.81,24.75,26.39,36.91,38.94,9.93,10.26,20.36,20.8,31.88,32.22l17.17,16.79,7.87,7.59c.59.56,1.17,1.12,1.72,1.66,1.13,1.09,2.2,2.13,3.29,3.08,1.59,1.36,3.29,2.59,5.06,3.65,3.06,1.82,6.31,3.31,9.75,3.98,16.39,3.17,22.34-6.24,19.09-19.09h0ZM656.8,653.33c-11.96,4.69-20.45,14.56-27.9,24.53,8.12-7.38,14.94-14.98,24.95-20.06l.72.31c-12.46,6.49-25.78,22.1-34.9,35.19-1.6,2.3-3.07,4.51-4.39,6.59-.03-.24-.05-.48-.08-.72-.53-4.14-2.46-6.32-5.63-8.76,1.1-1.15,2.17-2.32,3.23-3.49,2.43-2.7,4.82-5.44,7.34-8.06,10.43-10.86,22.7-20.81,36.79-26.37l-.12.83h0ZM611.18,702.86c-.54,1.78-1.77,3.37-3.44,4.23-.7.36-1.41.56-2.13.66-.96.13-1.95.09-2.97.06-2.1-.65-3.89-1.51-4.92-3.57-.84-1.69-.82-3.65-.19-5.41.23-.64.54-1.26.92-1.84.91-1.39,2.22-2.55,3.72-3.18,1.08-.45,2.37-.56,3.52-.57,2.22.59,3.77,1.48,4.93,3.54,1.02,1.82,1.16,4.1.57,6.09h0ZM570.16,688.54c.21-.21.42-.41.63-.62.98-.97,1.95-1.95,2.91-2.93,2.22-2.25,4.4-4.51,6.57-6.78,3.64-3.8,7.27-7.59,11.05-11.35.51-.5,1.02-1.01,1.53-1.51l3.86,4.2c-.31.31-.72.72-1.23,1.22-2.53,2.49-7.25,7.06-11.41,11.36-2.54,2.63-4.88,5.17-6.37,7.06-.95,1.21-1.57,2.16-1.67,2.71l.3.6c.72-.01,1.77-.59,3.05-1.54,1.97-1.47,4.46-3.84,7.02-6.43,4.27-4.32,8.73-9.26,11.3-11.67.38-.35.71-.65,1-.89l6.82,6.5c-.32.26-.65.52-.98.78-.42.34-.85.67-1.29.97-4.9,3.5-8.34,6.51-11.5,9.81-2.12,2.21-4.12,4.55-6.36,7.24-.87,1.05-1.78,2.15-2.75,3.31-.09.11-.18.22-.27.33-4.5-3.57-8.51-8.02-12.22-12.4h0ZM600.95,713.82c-1.09.98-2.16,1.96-3.24,2.95-2.49,2.31-4.98,4.63-7.54,6.86-14.73,12.8-31.41,25.32-49.79,32.26-4.06,1.53-8.45,1.84-12.56,3.17-.13.04-.26.09-.39.13,17.3.36,32.29-8.3,46.21-17.69l-.13,1.13c-1.95,1.48-3.87,3.01-5.85,4.46-12.43,9.13-27.57,16.01-43.29,13.55-9.44-1.48-20.45-6.6-26.03-14.66-1.66-2.39-2.49-5.58-1.85-8.46.47-2.1,1.76-3.93,3.59-5.08,1.8-1.16,3.99-1.54,6.07-1.04,1.9.47,3.53,1.69,4.53,3.38.91,1.51,1.75,4.06,1.11,5.8-1.2,3.27-6.51.83-8.88,1.75-.39.67-.72.99-.46,1.81.61,1.9,3.49,3.76,5.15,4.8,6.1,3.85,13.75,4.5,20.76,3.47,25.73-3.77,42.95-28.34,57.57-47.63.09-.12.19-.24.28-.37.87-1.17,1.7-2.38,2.52-3.59,1.73-2.55,3.44-5.13,5.48-7.42.13-.14.26-.28.39-.42,3.72-4.01,8.53-6.92,12.44-10.75.12-.11.23-.22.34-.34,3.56-3.54,6.72-7.51,10.27-11.08,12.51-12.57,28.28-24.35,45.87-28.13,11.12-2.39,23.16-1,32.79,5.33,3.93,2.59,8.53,6.68,9.36,11.54.32,1.91-.09,3.87-1.23,5.44-1.28,1.76-3.25,2.9-5.42,3.12-2.27.24-4.8-.54-6.55-2.04-1.15-.99-2.11-2.45-2.13-4.01-.1-6.48,6.66-4.2,8.77-6.36-.26-1.21-1.78-2.11-2.74-2.8-8.72-6.2-20.23-8.91-30.76-7.12-19.81,3.35-37.02,19.04-50.16,33.42-1.65,1.8-3.43,3.6-5.07,5.48-.93,1.05-1.81,2.13-2.6,3.25.18.6.28,1.13.33,1.76-2.81.69-5.69-1.12-8.52.47-1.56.88-2.99,2.2-4.11,3.73-.94,1.28-1.67,2.71-2.09,4.15-.82,2.84-.49,5.87,1.07,8.41,2.05,3.33,5.06,4.6,8.7,5.39-.75.65-1.49,1.31-2.22,1.97h0ZM740.21,848.96c-.05-.01-.12-.03-.18-.05-4.94-1.43-9.6-3.99-13.43-7.43-3.63-3.26-7.11-6.71-10.64-10.08-8.1-7.74-16.18-15.51-24.09-23.43-8.09-8.09-16.22-16.14-24.29-24.25-8.29-8.32-16.32-16.91-24.44-25.39-12.71-13.26-25.34-26.59-37.92-39.97-.51-.55-1.02-1.09-1.54-1.63,1-1.07,2.09-2.25,3.31-3.57.22-.24.45-.49.68-.74.32.77.64,1.51.98,2.24,1.08,2.4,2.24,4.57,3.87,6.41,15.67,17.61,27.7,30.73,43.7,48.04,15.64,16.91,31.57,33.63,47.9,49.87,7.31,7.28,14.7,14.47,22.1,21.67.09.09.19.18.28.27,3.68,3.49,8.4,6.28,13.45,7.89,0,0,.01,0,.02,0,.39.15.66.24.78.29-.18-.05-.36-.1-.54-.15h0ZM744.21,837.81h0c-.08.69-.4,1.35-.9,1.84s-1.13.8-1.83.89c-.01,0-1.52.16-3.48-.32-.75-.18-1.48-.43-2.17-.76-14.56-12.68-40.13-38.61-60.46-59.52-14.62-15.04-39.58-43.72-39.58-43.72-2.16-2.26-3.98-4.63-5.74-6.93-1.55-2.02-3.02-3.93-4.57-5.58-1.37-1.45-1.6-2.74-1.13-3.22.48-.47,1.77-.24,3.22,1.12,1.66,1.56,3.56,3.02,5.58,4.57,2.3,1.77,4.67,3.59,6.93,5.75,0,0,28.16,25.56,43.1,40.08,20.69,20.12,46.49,45.42,59.6,59.44.5.91.87,1.87,1.11,2.88.49,1.97.33,3.47.32,3.49h0ZM749.8,836.77c.18-.93.14-1.86.04-2.72-.36-3.11-2.29-4.97-4.25-6.91-2.12-2.09-4.26-4.17-6.44-6.21-4.41-4.13-8.82-8.25-13.31-12.3-9.33-8.41-18.48-17.02-27.55-25.7-9.37-8.97-18.73-17.95-27.99-27.03-8.68-8.5-17.34-17.02-25.9-25.65-4.12-4.15-8.25-8.3-12.39-12.43-2.08-2.07-4.27-3.97-6.59-5.78-1.54-1.21-3.12-2.41-4.49-3.81.61.53,1.26,1.01,1.92,1.48,2.16,1.53,4.44,2.89,6.55,4.49,2.35,1.78,4.5,3.81,6.7,5.75,4.36,3.84,8.63,7.77,12.9,11.71,9.24,8.55,18.4,17.18,27.52,25.85,9.4,8.93,18.74,17.94,28,27.02,8.96,8.78,18.02,17.48,26.91,26.34,4.24,4.23,8.35,8.61,12.37,13.05,3.02,3.34,7.54,6.89,6.01,12.86h0Z"/>
      <path class="st0" d="M592.85,705.16s0,.02,0,.03c-.28,1.45-.97,2.92-1.85,4.37-1.52,2.49-3.6,4.89-5.11,6.89-7.63,10.12-16.02,21.62-26.55,28.89-10.78,7.44-25.37,13.42-38.67,10.95-.71-.13-1.41-.28-2.11-.47l-.33-.53c1.39-.9,4.81-.4,6.52-.52,2.73-.19,5.54-.83,8.18-1.54,7.91-2.11,15.07-5.8,21.86-10.33,9.88-6.6,18.14-14.97,25.5-24.24,2.91-3.67,5.65-7.7,8.85-11.12.08-.08.15-.16.23-.24,1.16-1.22,1.77-1.9,3.48-2.13.01,0,.02,0,.03,0h0Z"/>
      <path class="st0" d="M607.62,703.13c-.83,1.12-2.31,1.41-3.61,1.47-.05,0-.09,0-.14,0-.3.01-.59.01-.9.01-1.49-.72-2.65-1.36-3.19-3.05-.31-.95-.25-1.99.17-2.89.05-.11.1-.21.17-.32.6-1.04,1.64-1.9,2.82-2.16.72-.16,1.48-.16,2.22-.14,1.45,1.16,2.98,2.52,3.14,4.52.08.99-.09,1.74-.69,2.55h0Z"/>
    </g>
    <g id="pin">
      <path class="st0" d="M619.84,311.32c-24.1,24.1-102.92,102.92-190.28,190.28l-4.06,4.06-.09.09c-1.27,1.27-2.54,2.54-3.81,3.81l-4.15,4.15-.02.02-1.15,1.15c-.92.92-1.85,1.85-2.77,2.77l-1.34,1.34-2.85,2.85c-43.39,43.39-87.99,87.99-128.33,128.33-.1-.08-.2-.16-.3-.24-2.62-2.05-4.6-3.13-5.27-2.54-8.78,7.6-12.11,10.92-15.12,13.41-16.62-16.44-38.61-36.64-63.4-36.6-11.18.02-22.6,3.29-30.64,11.44-3.07,3.11-5.73,7.28-5.6,11.8.08,2.85,1.39,5.45,3.47,7.38,2.45,2.27,5.62,3.31,8.93,3.09,3.15-.21,6.1-1.45,8.14-3.91,1.32-1.6,2.45-3.82,2.26-5.96-.2-2.3-1.79-4.82-3.57-6.25-.35-.28-.72-.54-1.08-.79,12.18-3.39,19.18-2.19,30.22,4.04,4.43,2.49,8.92,5.51,12.85,8.73,4.05,3.32,18.09,20.6,21.35,24.2,1.19,1.31,2.32,2.56,3.4,3.75.46.5.9.99,1.34,1.48-32.69,32.69-60.96,60.96-81.21,81.21-10.93-6.23-24.27-8.22-37.32-4.48-25.72,7.37-40.6,34.19-33.24,59.91,7.37,25.72,34.19,40.6,59.91,33.24,25.72-7.37,40.6-34.19,33.24-59.91-.87-3.04-2.01-5.92-3.39-8.64l80.82-80.82c.55.59,1.07,1.15,1.58,1.69,1.75,1.86,3.28,3.48,4.95,5.26,12.27,13.08,25.56,27.09,41.73,34.22,13.33,5.22,26.33,6.93,39.84,1.07,6.87-2.98,15.92-8.59,18.89-15.86,1.36-3.33,1.43-7.5-.06-10.8-1.23-2.72-3.63-5.01-6.45-6.01-2.85-1-6.08-.6-8.77.72-2.73,1.34-5.26,3.77-6.23,6.71-.58,1.75-.52,3.64.37,5.28,1.3,2.4,3.72,3.57,6.26,4.23.39.1.78.18,1.18.26-11.64,4.16-21.03,5.08-32.51-.4-16.63-7.94-28.56-24.34-38.83-38.95,7.11-6.96,7.18-6.95,14.02-14.17.78-.8-.23-3.07-2.26-6.03-.12-.18-.25-.37-.39-.55,40.43-40.42,85.16-85.16,128.73-128.73l2.85-2.85,5.47-5.47h.01s4.14-4.15,4.14-4.15l198.17-198.17c65.4-65.4,101.97-122.41,102.26-122.85-.42.29-60.15,41.42-121.92,103.19h0ZM144.5,843.47c-16.25,4.65-33.86-7.08-39.33-26.2-5.48-19.13,3.25-38.41,19.5-43.06,16.25-4.65,1.47,16.35,6.95,35.48,5.48,19.13,29.14,29.12,12.89,33.78ZM169.63,833.61c6.8-11.21,8.58-24.22,4.8-36.83-.05-.18-.11-.37-.17-.55-1.5-4.79-3.73-9.18-6.59-13.08-1.16-1.58-2.41-3.07-3.76-4.48-1.86-1.94-3.91-3.71-6.11-5.31-2.22-1.6-4.6-3.03-7.13-4.25,3.08.52,5.97,1.46,8.64,2.73,2.52,1.2,4.85,2.71,6.96,4.46,1.5,1.24,2.89,2.6,4.17,4.07,3.15,3.6,5.62,7.82,7.33,12.33,5.21,13.76,3.33,30.33-8.15,40.9h0ZM177.82,773c-1.35-1.41-2.78-2.73-4.28-3.96,20.18-20.18,48-48,79.88-79.88,1.43,1.57,2.73,3,3.94,4.31l-79.54,79.54ZM253.93,684.76c-.03.24-.05.47-.08.71-.99-1.57-2.07-3.21-3.24-4.92-9-13.2-22.7-29.59-35.48-36.25l.71-.31c9.86,5.01,16.59,12.49,24.59,19.77-7.34-9.83-15.7-19.55-27.5-24.18l-.12-.82c13.89,5.47,25.97,15.28,36.26,25.98,2.84,2.95,5.51,6.06,8.27,9.09.71.77,1.42,1.54,2.14,2.3-3.12,2.41-5.03,4.56-5.55,8.64h0ZM261.27,692.56c-.64-.33-1.22-.78-1.71-1.29-.77-.81-1.35-1.81-1.67-2.88-.33-1.09-.43-2.27-.28-3.41.12-.91.39-1.79.84-2.58,1.14-2.04,2.66-2.91,4.85-3.49.13,0,.25,0,.38,0,1.03.03,2.15.16,3.09.56,1.01.42,1.93,1.09,2.69,1.9.83.88,1.49,1.94,1.88,3.04.62,1.73.63,3.67-.2,5.33-1.01,2.03-2.78,2.88-4.84,3.52-1.77.06-3.41.13-5.03-.71h0ZM339.48,737.23c6.91,1.01,14.45.37,20.46-3.42,1.63-1.03,4.48-2.87,5.07-4.74.26-.81-.06-1.13-.45-1.78-2.33-.9-7.56,1.5-8.74-1.73-.63-1.72.2-4.22,1.09-5.72.98-1.66,2.59-2.86,4.46-3.33,2.05-.49,4.21-.13,5.98,1.02,1.8,1.13,3.07,2.93,3.54,5.01.63,2.84-.19,5.98-1.82,8.34-5.5,7.94-16.35,12.99-25.65,14.44-15.5,2.43-30.41-4.35-42.66-13.35-1.95-1.43-3.84-2.94-5.76-4.4l-.13-1.11c13.72,9.25,28.49,17.79,45.54,17.43-.13-.04-.26-.09-.38-.13-4.06-1.31-8.37-1.61-12.37-3.12-18.11-6.83-34.55-19.17-49.07-31.79-3.02-2.62-5.92-5.38-8.87-8.09-1.3-1.19-2.61-2.37-3.94-3.53,3.58-.79,6.55-2.03,8.57-5.31,1.54-2.5,1.86-5.48,1.05-8.29-.54-1.86-1.61-3.71-2.99-5.23-.92-1.02-1.99-1.89-3.12-2.54-.65-.37-1.31-.55-1.96-.63-2.15-.24-4.31.68-6.43.16.05-.62.15-1.14.33-1.74-.51-.72-1.05-1.42-1.63-2.11-1.86-2.25-3.99-4.36-5.93-6.48-12.95-14.17-29.9-29.63-49.43-32.93-10.38-1.75-21.72.91-30.31,7.02-.95.68-2.45,1.56-2.7,2.76,2.08,2.13,8.74-.12,8.65,6.26-.03,1.54-.98,2.98-2.11,3.95-1.71,1.47-4.21,2.25-6.45,2-2.13-.22-4.07-1.34-5.34-3.07-1.13-1.55-1.54-3.48-1.22-5.36.81-4.79,5.35-8.82,9.22-11.37,9.49-6.25,21.36-7.61,32.31-5.26,17.33,3.72,32.88,15.34,45.2,27.72,3.61,3.63,6.8,7.67,10.45,11.25.19.19.39.38.59.56,1.96,1.85,4.13,3.49,6.24,5.17,1.53,1.22,3.03,2.46,4.42,3.83.48.47.94.95,1.39,1.45,2.66,2.99,4.75,6.48,7.08,9.75.35.5.71.99,1.08,1.47,14.4,19,31.38,43.22,56.73,46.93h0ZM286.26,686.49c-.35-.42-.69-.83-1.03-1.24-3.41-4.12-6.11-7.39-9.18-10.48-1.33-1.34-2.73-2.64-4.28-3.96-1.78-1.52-3.77-3.07-6.1-4.72-.12-.08-.23-.16-.35-.25-.64-.47-1.26-.99-1.89-1.48l6.72-6.41c.43.35.97.85,1.59,1.46,1.49,1.45,3.47,3.54,5.61,5.81,1.3,1.37,2.67,2.81,4.04,4.21,4.47,4.58,8.89,8.72,10.81,8.76l.3-.59c-.29-1.49-4.32-5.94-8.78-10.5-1.36-1.39-2.76-2.8-4.11-4.13-2.21-2.2-4.27-4.2-5.76-5.66-.73-.72-1.33-1.31-1.74-1.72l3.81-4.14c.64.63,1.27,1.26,1.91,1.89,1.92,1.91,3.8,3.84,5.66,5.76,1.35,1.4,2.7,2.8,4.04,4.2,3.19,3.32,6.38,6.65,9.71,9.96.35.35.7.69,1.05,1.04-3.66,4.31-7.6,8.7-12.04,12.21h0ZM600.31,350.52l-160.84,160.84-4.06,4.06-.09.09-7.99,7.99-.02.02-1.22,1.22c-.93.94-1.87,1.87-2.8,2.81l-1.31,1.31-.06.06-2.73,2.73-.09.09-127.95,127.95c-1.36-1.43-2.74-2.83-4.1-4.14l136.15-136.15c1.39-1.39,2.76-2.77,4.14-4.15l7.98-7.98c74.76-74.75,139.89-139.89,160.87-160.87,57.85-57.85,107.04-103.17,107.71-103.78-.65.72-42.38,46.7-103.59,107.91h0Z"/>
      <path class="st0" d="M349.49,740.05l-.33.52c-.69.19-1.38.34-2.08.47-13.1,2.43-27.48-3.46-38.11-10.79-10.37-7.16-18.65-18.5-26.16-28.47-1.78-2.36-4.37-5.29-5.84-8.25-.48-.96-.84-1.93-1.02-2.88,1.25.16,1.91.57,2.63,1.26.26.24.52.53.82.84,3.25,3.43,6.01,7.5,8.95,11.21,7.25,9.13,15.38,17.38,25.12,23.89,6.69,4.46,13.75,8.1,21.54,10.18,2.6.69,5.37,1.33,8.05,1.51,1.68.12,5.05-.38,6.42.51h0Z"/>
      <path class="st0" d="M269.11,687.12c-.53,1.66-1.67,2.29-3.14,3-.3,0-.59,0-.88-.01-1.14-.04-2.44-.25-3.32-1.05-.13-.12-.26-.26-.37-.41-.59-.8-.76-1.53-.68-2.51.16-1.96,1.67-3.31,3.09-4.45.73-.02,1.48-.02,2.19.14.72.16,1.39.55,1.93,1.06.33.32.62.68.85,1.07.55.96.68,2.11.33,3.16h0Z"/>
    </g>
  </g>
  <g class="st1">
    <path class="st2" d="M1379.68,593.03c22.56,0,42.86,8.77,59.41,25.57l-8.77,9.02c-14.29-14.54-31.83-22.31-50.63-22.31-40.1,0-69.93,32.58-69.93,76.2s31.08,75.95,69.93,75.95c19.3,0,37.85-8.27,52.64-25.07l9.02,9.27c-18.05,18.8-38.6,28.07-61.66,28.07-47.37,0-83.47-38.1-83.47-88.23s35.84-88.48,83.47-88.48h0Z"/>
    <path class="st2" d="M1484.45,674.74c9.78-12.79,24.56-20.3,39.1-20.3,2.26,0,5.26.25,6.77.5l-2.01,13.28c-1.5-.25-4.26-.5-6.01-.5-14.29,0-27.57,6.27-37.6,22.31v77.2h-12.53v-110.29h10.03l2.26,17.8h0Z"/>
    <path class="st2" d="M1546.61,712.09c0-32.58,24.06-57.65,55.9-57.65,17.3,0,32.08,8.02,41.36,21.06l2.01-18.55h10.03v110.29h-10.03l-2.01-18.55c-9.27,13.04-24.06,21.06-41.36,21.06-31.58,0-55.9-25.07-55.9-57.65ZM1645.37,712.09c0-25.82-18.55-46.12-42.86-46.12s-42.86,20.3-42.86,46.12,18.05,46.12,42.86,46.12,42.86-20.3,42.86-46.12Z"/>
    <path class="st2" d="M1683.47,658.2l23.06-1.25-1.25-3.51c-4.01-10.53-6.77-19.55-6.77-27.32,0-22.81,14.54-38.1,37.6-38.1,10.78,0,22.31,4.51,31.08,12.53l-7.52,8.27c-6.52-6.01-15.79-9.53-23.56-9.53-15.04,0-25.07,11.28-25.07,26.82,0,7.77,3.01,17.04,6.77,27.32l1.25,3.51h40.61v11.28h-39.6v99.01h-12.53v-99.01h-24.06v-10.03h0Z"/>
    <path class="st2" d="M1826.09,758.46c7.02,0,14.29-3.76,20.56-10.28l7.27,7.77c-8.52,9.27-18.3,13.78-28.33,13.78-19.8,0-31.08-14.04-31.08-34.59v-66.92h-24.06v-10.03l24.06-1.25h.25l2.26-31.08h10.03v31.08h40.61v11.28h-40.61v66.92c0,14.29,7.52,23.31,19.05,23.31h0Z"/>
    <path class="st2" d="M1933.62,595.54h44.37c35.59,0,55.64,17.04,55.64,44.12,0,17.04-9.53,30.58-26.32,37.6,21.81,6.77,33.84,22.06,33.84,42.36,0,29.33-24.31,47.62-63.17,47.62h-44.37v-171.7h0ZM2020.09,639.65c0-19.3-15.04-32.33-40.86-32.33h-32.58v64.67h32.58c25.82,0,40.86-13.04,40.86-32.33h0ZM2027.61,719.61c0-22.81-17.8-35.84-48.38-35.84h-32.58v71.69h32.58c30.58,0,48.38-13.04,48.38-35.84h0Z"/>
    <path class="st2" d="M2071.73,712.09c0-32.84,23.56-57.65,55.64-57.65s55.64,24.81,55.64,57.65-23.56,57.65-55.64,57.65-55.64-24.81-55.64-57.65ZM2169.98,712.09c0-26.32-17.8-46.12-42.61-46.12s-42.61,19.8-42.61,46.12,17.8,46.12,42.61,46.12,42.61-20.05,42.61-46.12Z"/>
    <path class="st2" d="M2251.95,700.56l32.08-43.61h13.78l-39.1,52.89,41.61,57.4h-15.54l-34.34-47.13-34.34,47.13h-13.78l41.61-56.4-39.1-53.89h15.54l31.58,43.61h0Z"/>
  </g>
  <g>
    <path class="st2" d="M958.69,525.33c-1.15,0-3.45-.86-4.31-.86h-9.77c-4.88,0-9.19-2.01-10.63-2.01-.57,0-5.17.86-6.61.86-7.47.29-23.55-3.73-26.72-8.62-.86-1.72-2.01-7.76-2.01-8.62s.29-2.3.29-3.45c3.16-2.59,6.61-5.46,10.05-6.89,5.74-2.59,17.52-4.88,18.38-4.88.86-.29,5.17.86,6.03.86,3.45,0,8.91-13.21,8.91-14.94,0-.57-1.44-6.03-1.72-7.18,0-1.15,2.01-12.35,2.01-13.21,0-1.15-1.72-10.92-1.72-11.78,0-6.03.29-6.03.57-13.5,0-.57.86-3.16.86-4.31,0-.86-1.44-5.74-1.44-6.61-.29-.86,0-.29,0-.86.57-1.44,1.44-3.45,1.44-5.17.29-2.87.29-7.76.29-8.62s-.29-2.87-.57-10.92c0-6.89-.29-13.21-1.15-25.28-.29-5.17,1.72-12.64-1.15-18.96-.29-.86-2.87-3.73-3.45-3.73-9.48.29-8.33,2.3-18.1,3.73-1.15,0-3.16,1.72-4.02,3.16-.57,1.15-1.44,3.73-2.01,5.17-1.44,2.59-3.16,5.17-3.16,7.76,0,.86,1.15,3.73,1.72,5.46,0,1.15,0,3.16-.29,5.17v4.6l.57.29c.29,10.05,2.01,14.08-9.48,21.83-1.44.57-5.46,2.3-6.32,2.3-.86.29-4.31-1.72-6.32-2.3-1.44-.29-4.6-.29-6.32-.86-1.15-.29-4.6-2.3-6.03-4.02-2.59-2.87-6.03-10.05-6.03-10.92s1.15-3.45,1.15-4.88c0-3.45,0-8.04-.29-11.49,0-1.15-.57-2.59-.57-3.45s1.15-6.32,1.15-7.18-1.44-4.31-1.44-6.03c0-1.15.29-2.3,0-3.45-.29-2.01-1.15-4.88-1.15-5.74,0-2.87,2.01-12.06,2.3-12.64,1.15-3.16,5.74-7.18,9.19-9.48,2.59-1.44,8.33-2.59,9.19-2.59l10.05-.29c.86,0,4.02-1.15,5.17-1.15.86,0,3.73,1.44,5.74,1.72,2.3.29,8.04-.29,11.78.29,2.01.29,6.03,1.72,6.89,1.72,1.15,0,5.74-1.72,6.61-1.72,1.15,0,8.04.57,9.19.57.86,0,11.2-1.44,12.06-1.44s16.37.29,17.52.29c.86,0,13.79-1.15,14.65-1.15s8.33.29,12.64.57c2.59.29,7.76,1.44,8.62,1.44,2.59-.29,2.59.29,9.77-2.3,3.73,4.6,10.05,8.62,12.93,12.64,1.72,2.59,2.59,9.19,2.59,10.05l1.15,40.79c0,.57-.86,3.16-.86,4.02l.29,11.2c0,.86.29,3.16,0,4.6-.29,1.44-.57,3.73-2.01,4.6-3.16,2.3-10.63,4.6-11.78,4.6-.86,0-4.02-1.44-6.03-2.3-.86-.29-1.15-1.44-1.72-2.3-1.44-2.01-2.59-4.6-3.45-6.61-4.02-7.47-4.6-13.21-5.17-19.82-.29-5.17-2.01-10.05-3.45-14.65-.29-1.15-2.01-3.73-2.59-5.46-.57-2.01-.57-4.88-3.16-6.32-1.44-.86-4.02-.29-6.32-.86-1.15-.29-2.3-1.72-3.45-2.01-1.44-.57-4.31-.57-5.17-.57-6.32.29-7.18,1.44-9.48,10.05-.57,1.44.29,5.74.29,8.33,0,3.16-1.15,6.61-.86,9.48,2.01,13.79-.57,23.27-.29,33.61,0,.86.86,10.34,1.44,14.36,0,1.15,1.15,3.16,1.15,3.73,0,.86-1.15,3.16-1.15,4.6-.57,9.48-.86,27.86-.57,28.73,0,4.02.29,10.63,2.59,15.22.86,1.44.57,4.02,1.72,5.75,2.01,3.16,7.47,2.59,10.92,4.31,5.74,2.87,11.49,2.3,17.81,3.73,7.18,1.72,8.62,14.08,8.62,18.1,0,2.01.57,5.74-1.15,7.76-2.59,3.16-7.18,6.03-12.35,7.18-3.73.86-10.63,1.15-11.49,1.15s-6.03-2.01-6.89-2.01c-1.15,0-4.88.86-5.74.86s-5.17-1.15-6.03-1.15l-12.35.29Z"/>
    <path class="st2" d="M1094.56,488.56c2.59,1.15,4.88,2.01,6.89,3.73.57.29,1.15,2.3,1.72,3.45.57.86,2.59,2.01,3.73,3.16,1.15,1.15,1.72,2.87,2.59,4.31.57.86,1.44,1.72,2.01,2.3,4.31,2.87,9.19,6.61,13.79,10.34.57.29.57,1.44.57,2.3,0,3.16-.57,2.87-4.6,4.31-4.31,1.44-13.5,2.01-14.65,2.01-.86,0-2.87-.57-4.6-.57-5.17,0-15.51.29-16.37.29-5.17,0-6.89-2.01-8.91-2.01-.86,0-4.31.86-6.61,1.44-2.59.57-4.6,2.87-5.74,2.87-.57,0-4.6-1.44-6.03-2.59-.86-.57-2.01-2.87-2.3-4.02-.29-1.15-.29-2.58-.29-3.45,0-12.35,3.16-13.21,14.65-18.1,1.72-.57,7.76.86,11.49-.86,4.6-2.3,4.02-7.76,6.89-10.63,1.72.29,4.31.86,5.75,1.72ZM1210.32,523.32l-18.67,2.3c-7.76,0-18.1-4.31-22.12-5.75-2.87-.86-6.89-6.61-7.76-8.9v-1.72c0-2.87,4.31-4.88,6.61-5.74,1.15-.57,4.02-2.87,6.61-4.88,0-3.73,1.15-10.05,1.15-10.92s-1.15-3.45-2.3-4.88c-.86-1.44-2.3-4.02-3.45-6.03,0-.57-.29-2.01-.57-2.59-.29-.86-1.15-2.59-2.3-3.16-1.72-.86-4.6-1.44-5.46-1.44s-5.46,1.15-6.32,1.15-8.33-3.73-12.64-5.17c-1.72-.29-6.89-.57-7.76-.57s-2.59-.29-4.31.29c-2.01.57-5.17,3.16-6.03,3.16s-8.04-1.15-8.91-1.15c-4.88,0-9.48,2.87-13.79,6.89-.29.29.29,4.02-1.15,4.88-.57-1.44-.86-4.31-.86-5.46,0-.86-.29-4.31.57-6.03.29-.57,1.72-1.44,2.01-2.59.57-2.01.29-4.6,1.15-6.32.57-1.15,1.72-2.87,2.59-4.02.86-1.15,2.59-1.44,3.16-2.59.86-2.01,1.15-6.32,3.45-8.62.86.57,1.72,2.3,2.01,2.87.29,2.59-1.44,6.61.86,10.05,1.72,3.16,8.91,5.46,11.78,5.46h3.45c-.29.57-.29,1.72.29,2.87h.57c.29-.57.29-1.72.29-2.87.86-.29,2.01-2.58,2.3-2.87,2.01-3.45,4.88-3.45,7.76-3.45,1.15,0,12.35,2.01,13.21,2.01,4.6,0,10.05-5.17,13.5-10.63,2.01-3.16,6.03-10.92,6.03-11.78s-2.01-2.58-2.59-4.31c-.57-3.16-1.44-7.47-3.16-10.92-.57-1.15-3.16-2.3-3.16-3.16,0-1.15.86-3.73,1.44-5.46,1.72.29,4.6,1.44,6.32,2.3.57,2.87,4.02,5.17,6.03,6.89,3.73,3.16.86,6.61,6.03,13.79.29.57-.29,4.88.29,7.18.86,3.73,3.16,9.77,5.17,17.24,1.15,3.73-.86,8.33.29,11.78.86,3.16,4.88,8.62,5.74,9.77,1.44,1.72,2.3,4.88,3.73,7.76,1.44,4.02,5.74,6.32,9.19,7.76,2.01,1.15,7.76,2.3,11.49,3.45,1.44.57,4.6-.29,6.03,1.15,1.72,1.44,4.02,6.89,6.89,10.92.58,1.15,1.72,4.31,1.72,5.17s-1.15,3.16-2.01,3.73c-2.3,1.15-8.33,3.16-10.05,3.16h-14.36ZM1119.26,440.02c-2.01,0-4.31-5.46-4.31-5.75,0-.86,2.59-8.62,3.16-12.06.57-2.87-.57-8.9,2.01-11.78,1.15-.86,4.31-2.01,5.17-2.01,1.44,0,2.59,5.17,2.59,5.46,0,.57-1.72,14.65-3.73,20.68,0,.86-4.02,5.46-4.88,5.46ZM1158.04,389.17c-.29-2.3-2.01-6.61-3.73-8.9.86-1.72.29-11.78-5.46-11.78-2.87,0-5.74.86-5.74,3.16,0,.86,1.44,6.03,1.44,6.89,0,3.45-5.17,9.19-6.89,12.35-1.44,0-3.73.29-6.61-.29-1.72-.57-5.46-3.45-5.46-4.31s.86-2.01.57-2.59c0-1.15-.57-2.58,0-3.73.57-1.44,6.32-6.61,6.32-8.9,0-.86-2.01-8.04-2.01-8.91s1.44-8.62,3.16-12.64c.86-1.72,4.31-4.02,6.32-6.03,1.15-.86,1.72-3.73,3.45-5.17,1.72-1.15,5.46-1.44,6.32-1.44.57,0,5.17,4.02,6.61,6.61.57,1.72,1.15,8.04,2.3,12.93.29,1.15,2.59,3.45,3.16,5.46.86,1.72,2.01,6.03,2.3,9.19.57,2.58.29,6.89,4.02,9.19.29,2.01.86,4.31,2.3,6.61.57.57,2.3,1.72,2.87,2.59.57.86,1.72,9.77,1.72,12.35,0,.86-.57,3.16-.86,4.6-3.73-1.44-8.33-2.87-12.35-4.6-3.45-4.02-3.16-9.19-3.73-12.64Z"/>
    <path class="st2" d="M1291.34,521.6c-6.32,0-12.35,5.75-21.83,5.75-2.01,0-12.35-3.73-12.64-4.31-.86-1.15-1.72-4.31-1.72-5.17.29-.86,1.44-2.87,2.01-4.31,1.44-.86,9.77-6.61,13.79-6.32.86,0,3.45,0,4.88.57,2.01.57,4.6,2.01,5.46,2.01,2.01.29,10.34-10.92,10.34-10.92.29-.86-.86-4.31-1.15-6.03-.57-2.01-.57-5.46-.57-8.04,0-1.44.57-3.45.29-4.88-.29-1.15-1.72-4.6-1.72-5.46,0-.57,2.01-7.47,2.59-14.08.29-2.01-.86-5.17-.57-8.04.29-3.73,2.3-10.05,2.3-11.2,0-4.02-4.6-3.16-4.31-8.62,0-5.46,4.6-9.19,4.6-14.94,0-.57,0-6.89-.86-10.34-.57-1.44-2.59-4.31-2.59-5.17s.86-2.3,1.15-3.73c.29-2.87.86-6.03,1.15-9.48,0-1.15-.29-2.87-.29-4.31-.29-2.3,1.15-6.32,1.15-7.18s-.57-4.88-.86-10.92c0-1.44-1.15-3.16-1.72-4.88-.29-.57,0-1.44-.29-2.3-.86-2.01-2.3-4.02-3.45-6.03-.29-.57-.86-2.3-1.44-3.16-1.44-2.59-5.46-3.45-6.32-3.45s-11.49,3.16-12.35,3.16c-.57,0-5.17-1.72-8.62-3.45-.86-.57-1.72-2.3-2.01-2.87,1.15-.57,1.72-2.01,2.3-2.87,1.15-1.44,4.02-1.15,5.46-1.72,2.3-1.15,5.74-2.3,8.62-2.3.86,0,6.89,2.01,7.76,2.01,1.15.29,15.8-2.87,16.95-2.87,0,0,9.19,3.16,13.5,3.16.86,0,4.02-.57,4.6-.57h12.35c.57,1.15,1.15,3.45,1.15,4.6-.29,10.05-5.17,2.01-13.5,6.32-2.87,1.44-6.61,3.16-9.19,5.74-1.72,2.01-3.16,8.62-2.3,10.92,0,.86.57,1.72.86,2.3.29,2.01-.57,4.31-1.15,6.61-.29,2.3.57,5.46.29,8.04-.58,2.01-2.3,4.31-2.3,6.61-.29,4.02,2.59,5.17.58,13.5-.29.57-2.59,3.16-3.16,4.88-.29.29-.29,0-.29,1.15,0,2.59,2.3,3.73,3.45,8.33.57,1.15.57,2.87,1.15,4.6,0,.86,3.16,5.46,4.6,5.46.86,0,2.01-1.44,3.16-2.3,1.44-.86,3.45-1.72,5.46-2.87,1.15-.57,2.59-2.3,3.45-3.45,2.3-2.01,5.74-4.02,7.47-6.89,1.72-2.3,2.87-6.32,5.17-8.91,1.44-1.72,5.74-5.17,7.76-7.18,1.44-1.44,2.59-4.31,4.31-5.46,1.44-.86,4.31-2.59,6.32-3.45.86-.29,3.45-.29,5.17-2.87.29-.57.29-1.72.57-2.3.58-.86,2.87-2.3,3.73-3.45,1.44-1.72,2.01-3.73,2.87-5.46,4.02-2.01,9.77-4.02,11.49-8.62.29-.86.29-2.87.57-3.73s1.44-1.72,1.44-2.59c0-4.02-5.17-6.89-7.47-6.89-.86,0-2.59.29-5.74.57,0-.57-1.15-2.3-1.15-3.16s.29-2.87,1.44-4.02c.29-.57,10.63-2.87,14.94-2.87.86,0,2.59.57,3.45.57s3.16-2.3,5.17-2.87c1.44-.29,4.31-.29,5.17-.29,4.6,0,6.61,2.3,9.19,2.3,4.6,0,9.77-4.31,18.67-4.31,2.87.29,16.37,1.72,16.37,9.77,0,1.15-3.73,5.46-5.17,6.03-5.17,1.72-12.93,2.3-19.25,2.87-2.59.29-4.02,3.16-6.32,4.6-1.15.86-4.31,2.59-6.32,3.45-3.16,1.15-9.19.86-12.64,3.45s-2.01,8.04-5.17,9.48c-2.01,1.15-6.32.86-8.9,3.16-2.59,2.01-7.47,9.19-9.19,11.2-.58.86-2.3,1.15-3.45,1.72-1.44,1.15-4.6,3.16-5.17,5.17-.57,2.58-2.59,6.89-4.31,9.48-.86,1.44-3.16,4.31-3.16,5.46,0,2.3,1.15,3.45,3.16,6.03,1.44,2.01,2.59,6.32,2.59,8.33,0,2.87-1.72,9.19-3.45,10.92-1.44-1.15-4.31-2.58-6.03-3.16-1.15-1.72-2.01-4.6-3.45-5.74-2.01-1.72-7.18-3.73-8.04-3.73-1.44,0-7.47,4.02-8.62,5.74-.86,1.15-2.01,3.45-2.58,4.6-1.15,1.44-3.45,2.01-5.46,3.45-2.59,2.01-5.74,5.17-7.18,8.04-.29.57-.58,2.3-1.44,3.16-5.17,4.31-4.6,6.61-4.6,9.77,0,.86.29,3.45.57,5.46.29,2.59.29,6.32-.29,9.19-1.44,8.33,2.01,16.95,1.72,24.42-.29,1.15,1.44,2.87,1.72,4.6.86,2.87,2.59,9.19,6.89,9.48.86,0,4.88-.86,5.74-.86,2.59.29,7.18,1.15,6.89,5.46,0,3.45-6.89,4.02-7.47,4.02-1.15,0-5.46-2.01-6.61-2.01-.86,0-4.6,2.01-5.46,2.01l-14.65-.29ZM1432.95,525.91c-1.72.57-5.17,2.3-6.03,2.3-1.15,0-16.66-2.59-17.52-2.59s-8.04,1.15-9.19,1.15c-.86,0-2.3.29-3.45,0-2.3-1.15-5.74-4.6-6.61-4.6s-8.33.29-12.64.57c-2.01.29-7.18,1.44-11.2,2.3-1.15-1.15-2.59-4.6-2.59-6.32,0-2.01,1.44-5.17,2.59-6.32,5.46-1.15,15.22,2.59,15.51-7.18,0-1.72-.58-2.01-2.87-5.17-1.15-1.44-2.59-7.76-5.74-11.2-.86-.57-1.72-2.01-1.72-3.45,0-5.46-7.76-10.63-10.34-15.22-.29-.86-.86-7.47-2.01-11.2-.86-3.45-3.45-9.48-3.45-10.34,0-1.72,4.88-3.45,5.17-3.45q1.15,0,1.15.57c.58,1.15,1.15,2.87,1.72,4.02.86,1.72,3.16,2.87,4.31,4.6,2.01,2.87,3.73,12.93,10.92,14.08.29,0,1.15.29,2.01.86.86.86,2.01,2.58,2.3,3.73.29.86,0,2.3.57,3.45,1.44,2.87,2.59,6.32,4.6,9.48,1.72,3.16,4.31,7.47,6.61,11.2.86,1.72,2.87,2.3,4.31,3.73,1.15.86,2.87,1.72,4.02,2.59,2.3,1.72,5.17,5.74,6.03,5.74,1.15,0,4.6-3.16,6.03-4.6,2.3.86,4.88,1.44,6.89,2.59.86.57,2.87,2.87,4.88,3.73,2.3.86,4.6.86,6.89,1.72,1.44.57,2.01,3.73,2.01,5.46-.29,1.44-1.15,6.89-3.16,7.76Z"/>
    <path class="st2" d="M1541.54,522.46c.29-2.3-4.6-4.31-5.74-4.31-.86,0-10.92,2.58-12.07,2.58-.86,0-10.34-.86-11.49-.86-.86,0-18.38,4.88-19.25,4.88s-5.17-1.15-6.03-1.15-5.46,3.45-6.61,3.45c-.86,0-5.46-1.15-6.61-1.15-.86.29-3.45.57-4.31.57s-5.17,0-6.89-.86c-2.3-.86-4.31-2.01-6.03-2.59-2.59-2.3-4.02-4.6-4.02-7.47,0-2.3.29-4.31,3.45-5.46,5.74-2.3,17.24-3.16,18.1-3.16s11.49,2.01,12.35,2.01c.86-.29,8.62-.29,12.06-1.44,2.87-.86,2.87-5.46,2.87-7.76.29-2.87.86-7.18.57-10.92,0-1.72-1.44-4.02-.86-5.75.29-1.72,2.3-3.73,2.59-5.74.58-3.73-.57-8.04-.29-12.93,0-1.15.86-3.45.86-5.17.29-3.45-1.44-9.48.29-14.94,1.72,1.72,4.6,2.59,6.03,4.31,2.87,3.73,1.44,6.61.86,9.48-.29,2.3.86,8.04,2.01,12.06.86,2.87,0,6.61.29,9.77.29,4.02.86,10.34,1.44,15.51,0,.57,1.15,1.72,1.44,2.59,0,1.15-.29,2.3-.29,3.45.29,5.17,7.47,7.47,10.63,8.33,3.16.86,6.89,3.45,8.62,4.6,2.01,1.15,5.74,1.15,8.9,1.72,0,.86.58,2.3,1.15,2.87-1.15,1.15-2.59,2.58-4.02,3.45ZM1492.13,338.04c.86,0,4.31,1.72,5.46,1.72.86,0,5.17-3.16,6.03-3.16,1.15,0,6.89,2.3,7.76,2.3s9.19-1.15,10.05-1.15,5.74,2.3,6.61,2.3,5.17-1.72,6.03-1.72c1.15,0,11.49,3.73,12.35,3.73s5.17-2.59,6.32-2.59c.86,0,5.74.57,6.61.57s9.77-1.15,10.63-1.15,6.03,1.72,6.89,1.72,6.32-1.15,7.18-1.15,12.07,1.72,12.93,1.72,2.58-.29,3.45-.29,5.46,1.15,6.32,1.15c.86-.29,5.17-.86,6.03-.86s3.16.57,4.6,1.15c.29.86,1.44,1.72,2.01,2.59,1.72,4.02,4.6,11.49,4.6,12.35s-2.3,11.49-2.3,12.35,2.59,5.17,3.16,6.03c1.15,2.3,1.44,7.18,1.44,9.77-6.89,2.87-4.02,10.34-6.61,16.95-1.44-.86-4.31-2.3-6.03-3.73-.58-4.02-1.72-8.33-1.72-13.21,0-.86-.86-1.44-.86-2.3-.29-3.45,1.15-6.89.57-10.34-.86-4.02-2.3-8.04-4.02-11.49-.86-2.01-4.02-1.72-6.03-2.3-2.3-.57-3.73-.86-6.61-3.16-.57-.29-1.15-2.01-2.01-2.59-.86-.86-2.87-1.72-3.73-1.72s-5.46,1.72-6.32,1.72c-1.15,0-5.17-1.72-6.03-1.44-1.44,0-4.31,3.73-6.03,4.88-1.72.86-4.31.29-6.32.86-2.01-2.87-4.31-4.6-6.61-4.6-1.44,0-4.31.86-5.46.86-.86,0-5.17-.57-7.76-1.72-1.44-.57-3.73-3.45-4.6-3.45s-5.17,3.73-6.03,3.73-4.6-.57-5.46-.57-7.75,2.01-12.64,3.45c-2.01.86-3.16,5.75-3.16,6.61s1.44,6.03,1.44,6.89c0,4.31-6.03,10.63-6.03,11.2,0,1.15,4.02,8.33,4.02,9.19,0,4.88-6.03,6.32-6.03,9.19,0,1.15,3.16,4.02,4.02,4.31,1.44,2.87,2.87,5.46,4.02,8.91.57,3.16-1.15,5.17-.86,7.76.29,6.32,7.75,4.88,10.92,6.03,1.44.57,3.45,2.3,5.46,2.87-2.3,1.44-5.46,3.16-7.47,3.73-3.45.57-8.9-1.44-11.78,4.31-1.72-.57-4.31-.86-6.32-.57-1.44-6.03-.86-8.91-.86-13.5,0-4.02-1.15-10.63-1.15-11.78,0-.57,1.72-11.2,1.72-12.06s-.86-4.31-.86-6.89c-.57-10.92-.86-21.83-2.01-32.75,0-.86-1.15-1.72-2.01-2.59-.58-.29-2.01-1.15-2.87-1.44-3.45-.29-9.48-1.15-10.34-1.15-5.75,0-8.04.86-12.07,5.46-3.45-2.01-7.18-5.46-10.63-7.47-1.44-.86-5.74-2.3-8.33-3.16-.29-1.44-1.72-3.73-1.72-4.88,0-1.44,1.72-4.6,1.72-4.6,3.73-2.59,13.79-5.17,18.38-5.46.29,0,5.17,4.6,8.62,4.6h10.34ZM1608.18,495.46c1.15-2.59,1.44-8.33,1.44-8.91,0-1.15-2.01-6.89-2.01-7.76,0-7.18,6.32-13.5,6.32-18.1,1.44,0,4.6-.86,5.46-.86,1.15,0,4.6,5.46,5.46,7.18,2.01,4.02,2.87,8.04,3.16,11.78.29,2.01,0,4.88.29,7.18.29,1.44,1.15,4.02,1.15,5.17,0,.86-1.44,6.61-1.44,7.47s2.3,10.05,2.3,10.92-1.15,8.62-3.16,11.78c-.57.86-3.45,2.59-6.32,3.73-1.72.57-4.88.57-5.74.57s-16.95-.57-17.81-.57-5.74,2.01-6.61,2.01c-2.3,0-5.46-5.46-6.61-5.46-.86,0-3.45,2.87-7.47,2.87-7.47,0-6.32-3.73-10.63-3.73-.86,0-5.17,2.01-6.03,2.01-3.16,0-10.34-2.59-11.2-3.45v-1.72c0-5.17,8.62-7.47,11.49-7.47.86,0,4.88,1.15,5.74,1.15s5.17-1.72,6.03-1.72,4.31,2.01,6.03,2.59c1.15.29,2.59,0,3.45,0s2.3.29,3.45,0c3.73-1.15,7.76-2.01,11.2-4.02,2.01-1.15,4.02-5.17,6.32-7.18.86-1.15,4.6-3.16,5.74-5.46ZM1569.11,472.48c-.29-1.44-1.44-4.02-2.01-6.03-.29-.57-1.44-1.72-1.72-2.58-.86-2.3-.86-6.61-.86-7.47s-.29-4.6.86-6.61c.29-1.44,2.87-4.02,3.45-6.61.29-1.72.58-7.18,2.3-9.19l-.29-.29c-4.88-1.44-11.78-2.01-17.81-2.01-1.15,0-2.01-3.16-2.01-3.45,0-.86.86-2.01,1.44-3.16.86-.29,1.72-.29,2.59-.29s3.16.86,4.31.86c.86,0,6.03-4.31,7.75-5.74.86-.86,1.15-2.59,2.01-3.73-3.45-5.75-5.46-3.16-5.46-8.91,0-8.33,6.32-6.03,6.32-9.48,0-.86-1.15-2.01-1.15-3.16-1.15-.29-2.59-1.44-4.02-2.01-.29-1.15-.57-2.59-.57-3.45s.57-2.87.57-4.31c1.44-.29,3.73-1.15,6.03-2.01,1.15,2.01,2.59,4.88,2.59,5.75s-2.3,8.33-2.3,9.48c0,.86,3.16,8.91,3.16,10.05,0,.86-1.72,5.46-2.01,7.76-.57,2.87.57,9.48.29,14.65,0,1.15-1.15,2.3-1.15,3.45,0,.86,1.15,8.04,2.3,11.78.29,1.72,2.87,5.74,2.87,6.61s-1.15,5.74-1.72,8.04c-2.01,7.76,3.45,16.66-3.16,21.83-2.01-2.59-2.01-7.18-2.59-9.77Z"/>
    <path class="st2" d="M1853.21,510.39c0-12.35,12.93-18.67,12.93-26.14,0-.86-.57-4.6-1.15-6.61-.58-1.44-1.15-3.45-2.87-4.31-2.59-1.44-9.19-5.17-11.78-5.17-6.61,0-10.92,2.87-11.78,2.87s-8.33-1.15-9.19-1.15c-8.04,0-20.11,2.01-20.11,13.79,0,.86.86,1.72.86,2.87.29,1.72,0,4.31.57,6.03.58,1.72,14.94,15.51,14.94,18.38,0,3.16-4.31,9.48-4.88,9.77-6.03,2.59-15.51,3.16-23.55,3.16-.86,0-5.74-.57-6.61-.57s-5.75,1.15-6.61,1.15-11.2-2.3-12.06-2.3-14.94,2.01-15.8,2.01-2.59.29-3.45,0c-1.44-.57-13.21-5.74-13.21-10.05,0-.86.57-2.01.57-2.87.29-2.01.29-5.74,1.15-8.33.86-2.3,2.59-4.88,2.59-7.18,0-2.87-1.15-6.61,3.45-9.19,3.73-2.01,11.78-3.16,12.93-3.16.86,0,4.31.86,5.17.86,11.2,0,13.5-13.21,18.38-21.83,1.15-2.01,5.17-4.02,6.03-6.61.57-2.3.29-8.04,1.15-11.78.29-.86,1.44-1.72,1.72-3.16,1.15-4.31,2.3-9.48,3.45-14.36.29-.86-.57-2.59,0-3.45.86-1.72,4.02-4.02,5.74-6.61.29-.29,0-1.72.29-2.59.29-1.15,1.15-2.59,1.72-4.02,2.3-8.62,1.72-21.83,4.31-30.45.57-1.72,6.89-9.48,10.34-14.65,1.15-1.72.86-4.88.29-7.76-.86-4.02,0-6.61.29-10.05.29-.57.86-2.01,1.15-2.58,2.87-3.45,6.03-6.32,7.76-9.48,1.15-2.01,1.15-5.17,4.6-7.18,1.44-1.15,6.32-1.72,7.47-1.72.86,0,3.16.29,4.88.57,3.45,4.6,8.62,6.03,12.06,9.77,1.72,2.01,1.72,5.46,2.01,8.04.57,2.3,0,6.03,1.72,8.33,6.32,9.48,3.16,14.65,6.89,25.57.29,1.15,2.3,2.59,2.59,3.73,1.44,4.02,2.3,8.62,4.31,13.79,1.15,3.16,3.16,13.79,4.88,21.26.58,2.01,0,5.17.58,7.18,1.15,2.87,6.03,13.79,8.33,20.68.57,2.01.29,4.6,1.15,7.47,1.44,4.88,4.31,10.05,6.03,15.22,1.15,4.02,1.15,8.62,2.87,12.64.86,2.01,7.75,9.77,10.63,10.34,2.3.57,5.46,1.15,8.04,1.44.58.29,1.15.57,1.72.86,9.19,8.04,14.94,12.93,14.94,21.83,0,2.01,0,5.17-3.45,8.62-.57.57-2.58.86-4.02,1.44-2.87.86-8.62,1.72-9.48,1.72s-11.2-.29-16.95-.57c-4.88-.29-16.37.29-17.23.29-6.32,0-25.85-1.44-27.58-10.05,0-1.15-1.72-4.31-1.72-5.74ZM1834.25,398.65c-.86,2.3-.86,4.88-1.15,6.61-.86,2.59-2.87,5.46-3.73,8.33-.57,2.59-1.44,6.32-2.59,9.19-.29,1.15-2.01,2.59-2.3,3.45-.86,2.3-1.15,6.03-1.15,6.89,0,2.01-.29,1.72,1.72,4.88.58,1.15,0,2.87.58,3.45,4.02,4.6,7.75,4.31,10.05,4.31,5.46,0,5.46-1.15,9.19-2.59,1.72-.57,4.6-.29,6.32-.86.86-.29,2.59-5.46,2.59-7.18,0-.86-1.44-5.17-1.44-6.32-1.15-7.76-4.02-16.37-6.03-23.84-.29-1.15-2.59-2.3-3.16-3.45-.86-2.3-2.59-6.03-4.6-7.47-1.44,1.44-3.73,3.16-4.31,4.6Z"/>
    <path class="st2" d="M2191.89,360.74c0,2.87-1.72,13.79-1.15,19.82.29,2.01.86,4.88-.29,7.47-1.15,2.59-3.73,7.76-6.03,10.92-1.15,1.15-5.74,3.73-6.32,3.73-6.61,0-13.21-7.76-14.65-15.8-.86-4.31-5.46-8.33-8.9-12.06-1.44-1.44-2.59-3.73-4.02-5.75-.86-.86-2.87-2.3-3.45-3.45-.86-.86-1.72-4.31-2.87-6.03-2.58-2.59-5.74-4.6-8.9-6.32-1.72-.57-6.03-.86-10.05-1.72-2.01-.29-6.89-2.87-7.76-2.87-8.33,0-6.32,1.72-17.81,4.31-.86.29-2.01,1.15-3.16,1.72-8.62,3.16-13.21,10.34-14.94,16.66-.29,1.15-1.72,2.3-2.01,3.45-.29.86,0,2.3,0,3.16s-.57,2.3,0,3.16c1.72,3.73,4.02,7.18,6.61,10.92,1.72,2.87,6.03,4.6,8.04,5.75,1.15.86,3.16,2.87,4.88,3.73,1.72.86,5.46,2.01,6.32,2.01s4.6-1.72,5.46-1.72,4.02,4.02,6.61,4.6c8.62,2.01,16.37.57,23.84,1.72,1.15.29,4.31,2.01,6.03,2.59,3.73.57,8.33.29,12.35,1.15,1.72.57,4.02,2.87,6.32,4.02,1.72.86,6.03,1.72,8.62,3.45,4.02,2.3,12.64,11.2,16.66,16.09.86,1.44,1.15,4.02,2.01,5.74,1.15,2.59,3.16,4.88,4.31,7.76,1.44,3.45,5.17,20.97,5.17,23.55,0,.86-.86,3.16-1.15,4.6-.58,5.17-1.15,11.49-3.16,16.66-.86,2.01-2.87,4.02-4.31,6.03-1.44,1.44-1.72,4.02-2.87,5.46-2.01,2.3-6.32,4.6-8.62,7.47-6.61,7.47-10.05,8.62-16.09,11.49-4.02,2.01-8.33,4.31-12.64,5.17-6.03,1.44-17.24,2.3-18.38,2.3-.86,0-1.44-.57-2.3-.57-4.6-.57-10.92-.86-16.37-1.44-5.74-.57-11.78-1.72-17.52-3.16-.86,0-2.59-1.72-3.73-2.3-4.31-2.01-9.19-6.32-14.36-6.32-.58,0-3.73,3.16-6.32,4.31-3.73,1.44-11.2,3.73-12.06,3.73s-5.46-1.72-6.89-3.73c-2.01-3.16-2.3-7.47-4.88-11.2-1.15-2.87-4.6-5.46-6.03-8.62-1.44-2.87-2.01-8.33-2.01-9.19s1.44-8.33,1.44-9.19-.86-1.44-.86-2.3v-22.41c0-.86-2.3-7.76-2.3-8.91,0-.86,1.44-4.02,2.01-5.74.29-1.15,0-3.45.86-5.17,1.15-2.01,4.6-5.46,6.32-5.46.86,0,4.02.29,5.74.86,6.32,2.3,19.53,8.33,21.54,18.67,1.15,5.17,2.87,9.48,6.89,14.94,1.44,2.3,2.87,8.9,5.46,12.64s5.74,6.89,8.9,9.77c1.44,1.15,4.02,2.59,6.61,3.16,2.87.57,16.66,2.3,22.98,2.3,3.45,0,12.35-4.02,13.21-4.6.86-.57,25.57-21.26,25.57-28.44,0-2.01-1.44-2.59-3.73-6.32-1.15-2.01-1.44-5.17-2.59-7.18-.86-1.44-3.73-2.59-4.88-4.31-5.74-8.33-41.94-14.94-55.73-14.94-.86,0-12.07,1.15-13.21,1.15-.86,0-2.87-1.44-3.73-1.72-2.87-1.15-6.03-1.72-8.9-2.59-1.15-.57-2.01-2.01-3.45-2.59-2.59-.86-5.74-2.87-8.62-4.02-.86-1.72-2.01-4.02-3.45-6.03-.29-.57-2.01-1.44-2.87-2.3-2.01-2.01-4.6-4.6-6.03-7.18-.57-1.15-1.15-5.17-1.15-7.18-.86-10.34-1.15-20.97-2.87-29.3-.29-1.72-2.01-4.31-2.01-5.74,0-.57,4.02-8.62,6.03-12.64.29-.57,2.01-1.44,2.59-2.3,1.15-2.01,2.3-5.17,3.73-7.18,1.44-2.87,3.45-6.61,6.03-8.91,1.15-.86,4.88-1.44,7.47-1.72,1.15-.29,3.16.29,4.6-.29,2.59-1.44,5.74-4.6,6.61-4.6s4.88,1.72,5.74,1.72,3.73-.86,5.17-1.15c1.44,0,5.17.29,7.75-.29,1.15-.29,2.87-1.15,4.31-1.72,1.72-.29,5.17-.29,6.03-.29,5.46,0,14.36,2.87,18.38,3.73,4.02.57,8.62,0,13.21.86.86.29,4.88,2.01,7.47,2.3,1.15.29,3.45,0,4.88.29,2.01.57,3.73,2.59,5.75,3.16,1.72.86,5.17.86,6.03.86s2.87-1.72,4.6-2.87c2.3-1.15,7.18-2.3,8.04-2.3,3.73,0,6.89.57,11.78,5.74.57.57,1.44,2.3,1.44,3.16v22.12Z"/>
    <path class="st2" d="M2297.31,449.5c0-.86,2.59-6.89,2.59-7.76s-1.72-3.45-1.72-4.31,1.72-4.6,1.72-5.46-1.72-2.3-2.59-2.59c-.29-1.44-.57-3.73-.57-4.6,0-6.61,2.59-4.6,2.59-9.48,0-2.87-2.3-5.46-2.3-6.32v-10.05c0-.86-.29-8.04-.29-8.91l.57-.57c-.57-2.87-1.15-6.32-.86-8.04.58-3.16,1.44-8.33,1.44-9.48,0-3.16-4.31-19.82-6.61-19.25-.86.29-5.46-2.59-6.61-2.59-.86,0-5.17,2.59-6.03,2.59-.58,0-5.17-1.72-6.32-1.72-4.88,0-16.09,6.89-16.66,8.33-1.72,3.45-6.32,7.47-8.04,11.78-2.01,5.74-2.87,17.52-2.87,18.38s2.01,6.61,2.01,7.47c0,2.3-1.15,5.17-4.31,9.48-1.44,1.72-3.73,2.59-5.74,4.02-4.31-3.73-7.47-4.6-7.47-8.33,0-2.87,1.44-5.74,2.01-7.47.58-1.72,1.44-5.46,1.44-6.61-.29-2.87-2.3-4.02-2.87-7.76-.29-.86-1.72-2.87-2.3-4.02-1.15-1.72-4.6-2.87-4.6-4.88,0-1.15.86-4.02.86-6.03,8.62-3.45,2.87-11.49,5.17-18.1.29-1.15,2.87-5.17,5.17-6.89s7.18-3.16,8.04-3.16,5.46,1.44,6.32,1.44,10.63-1.72,11.78-1.72c.86,0,3.45,1.44,5.17,1.72,1.72.29,4.88,0,7.75.29,1.72,0,4.88.86,5.74.86,7.76,0,10.63-3.16,11.78-3.16.86,0,17.24,3.73,18.1,3.73s1.15-.29,1.44-.57c1.44-.57,3.73-.29,5.46-1.15,2.01-.29,4.6-2.87,5.74-2.87.86,0,4.31,0,6.03.57,1.44.29,3.16,2.01,5.46,2.59,3.73.86,11.2,1.15,12.06,1.15,2.3,0,4.02-3.45,9.77-3.45,4.6,0,1.72-1.15,8.33,3.16,1.72,1.15,2.59,4.02,3.73,6.03,1.44,1.72,3.73,4.02,4.88,6.03.86,1.72,2.3,4.31,2.59,6.03,1.15,4.02,2.3,11.49,2.3,12.35s-2.58,6.32-2.58,7.18,1.44,4.6,2.01,6.89c.86,2.59,1.44,6.89,1.44,7.76s-1.44,8.04-1.44,8.91,1.72,7.76,1.72,8.62-.86,2.87-1.44,4.31c-1.72.86-4.88,2.59-5.74,2.59s-4.88-2.87-6.61-4.31c-1.44-1.44-2.3-5.46-2.59-8.04-.29-.86.29-2.3,0-3.45-.86-5.74-2.3-11.2-3.16-16.95-.29-2.01,0-6.61-1.15-10.05-.57-1.44-3.45-3.73-5.46-6.32-.57-.86-.57-2.3-1.72-4.02-.86-1.15-2.58-2.3-4.02-2.87-2.01-.57-4.31-.29-6.61-.86-1.44-.57-4.31-4.31-6.32-5.46-1.44-.86-9.19-3.45-11.49-3.45-3.16,0-9.77,7.76-10.63,10.92-1.44,5.17-.29,6.61-.57,9.48,0,.57-.86,1.72-.86,2.58,0,3.16.57,6.03.57,9.19s-1.15,7.18-.57,10.92c.86,7.76.29,8.62-1.44,13.5-.86,3.16-1.44,8.33-1.44,12.35.29.86.86,1.72,1.15,2.3.57,1.72-1.72,4.6-2.59,6.61v1.72c0,.86,1.72,4.6,1.72,6.89,0,1.72-.86,3.73-.86,4.88,0,4.6,2.87,8.91,4.02,12.64.58.86.29,2.87.29,4.02-1.72,1.44-5.17,3.16-5.17,6.03,0,1.72,4.6,11.78,4.6,11.78,0,0-6.32,16.09-4.31,13.79.86.86.57,3.16,1.72,4.02.57.29,2.01.86,3.16,1.44,1.44,1.15,3.16,4.31,4.31,6.32.86,1.15,6.89,3.16,7.75,3.16s4.88-2.01,6.03-2.01c.86,0,5.17,2.87,6.32,2.87.86,0,5.17-2.01,6.03-2.01,5.46-.29,9.19,3.45,12.07,8.91.57,1.44.86,5.17.86,6.03s.29,1.44-.29,2.3c-1.72,1.44-4.02,2.87-6.32,3.73-5.46,2.01-16.95,4.88-17.81,4.88-.29,0-4.31-3.16-6.32-3.16-3.16-.29-10.63-.86-11.49-.57-.86,0-4.31,0-6.61.57-2.01.29-5.17,2.3-6.03,2.3-.58,0-3.73-2.87-6.03-3.45-4.6-1.72-9.48-1.44-12.64-2.01-2.01-.29-5.17-2.01-6.32-2.01-.86,0-4.88,2.01-5.75,2.01s-4.31,0-6.03-.57c-2.59-.86-5.17-2.59-8.04-4.02,0-.86.58-2.01.86-3.16,1.44-.57,3.73-2.01,5.17-4.02.29-.57.29-2.01.86-2.3,2.01-1.44,6.61-2.3,7.47-2.3s4.6.86,5.46.86c.86-.29,3.45-1.72,4.88-2.01,1.15-.29,4.31-.57,5.17-.57s1.15.29,2.01.29c2.59,0,9.19-6.61,9.77-7.47,1.15-1.72,2.87-2.87,3.16-4.6,1.72-1.44-.29-4.02,1.72-4.6-.86-5.74-1.15-11.49-3.16-14.94.86-.86,2.01-2.01,2.59-3.16,1.15-1.72,2.3-5.17,2.3-6.32,0-.57-3.45-3.16-4.88-4.02v-11.2Z"/>
    <path class="st2" d="M2414.24,488.56c2.59,1.15,4.88,2.01,6.89,3.73.57.29,1.15,2.3,1.72,3.45.57.86,2.58,2.01,3.73,3.16,1.15,1.15,1.72,2.87,2.59,4.31.57.86,1.44,1.72,2.01,2.3,4.31,2.87,9.19,6.61,13.79,10.34.57.29.57,1.44.57,2.3,0,3.16-.57,2.87-4.6,4.31-4.31,1.44-13.5,2.01-14.65,2.01-.86,0-2.87-.57-4.6-.57-5.17,0-15.51.29-16.37.29-5.17,0-6.89-2.01-8.91-2.01-.86,0-4.31.86-6.61,1.44-2.59.57-4.6,2.87-5.74,2.87-.57,0-4.6-1.44-6.03-2.59-.86-.57-2.01-2.87-2.3-4.02-.29-1.15-.29-2.58-.29-3.45,0-12.35,3.16-13.21,14.65-18.1,1.72-.57,7.75.86,11.49-.86,4.6-2.3,4.02-7.76,6.89-10.63,1.72.29,4.31.86,5.74,1.72ZM2530,523.32l-18.67,2.3c-7.76,0-18.1-4.31-22.12-5.75-2.87-.86-6.89-6.61-7.76-8.9v-1.72c0-2.87,4.31-4.88,6.61-5.74,1.15-.57,4.02-2.87,6.61-4.88,0-3.73,1.15-10.05,1.15-10.92s-1.15-3.45-2.3-4.88c-.86-1.44-2.3-4.02-3.45-6.03,0-.57-.29-2.01-.57-2.59-.29-.86-1.15-2.59-2.3-3.16-1.72-.86-4.6-1.44-5.46-1.44s-5.46,1.15-6.32,1.15-8.33-3.73-12.64-5.17c-1.72-.29-6.89-.57-7.76-.57s-2.59-.29-4.31.29c-2.01.57-5.17,3.16-6.03,3.16s-8.04-1.15-8.9-1.15c-4.88,0-9.48,2.87-13.79,6.89-.29.29.29,4.02-1.15,4.88-.57-1.44-.86-4.31-.86-5.46,0-.86-.29-4.31.57-6.03.29-.57,1.72-1.44,2.01-2.59.57-2.01.29-4.6,1.15-6.32.57-1.15,1.72-2.87,2.58-4.02.86-1.15,2.59-1.44,3.16-2.59.86-2.01,1.15-6.32,3.45-8.62.86.57,1.72,2.3,2.01,2.87.29,2.59-1.44,6.61.86,10.05,1.72,3.16,8.9,5.46,11.78,5.46h3.45c-.29.57-.29,1.72.29,2.87h.57c.29-.57.29-1.72.29-2.87.86-.29,2.01-2.58,2.3-2.87,2.01-3.45,4.88-3.45,7.75-3.45,1.15,0,12.35,2.01,13.21,2.01,4.6,0,10.05-5.17,13.5-10.63,2.01-3.16,6.03-10.92,6.03-11.78s-2.01-2.58-2.59-4.31c-.57-3.16-1.44-7.47-3.16-10.92-.57-1.15-3.16-2.3-3.16-3.16,0-1.15.86-3.73,1.44-5.46,1.72.29,4.6,1.44,6.32,2.3.57,2.87,4.02,5.17,6.03,6.89,3.73,3.16.86,6.61,6.03,13.79.29.57-.29,4.88.29,7.18.86,3.73,3.16,9.77,5.17,17.24,1.15,3.73-.86,8.33.29,11.78.86,3.16,4.88,8.62,5.74,9.77,1.44,1.72,2.3,4.88,3.73,7.76,1.44,4.02,5.74,6.32,9.19,7.76,2.01,1.15,7.76,2.3,11.49,3.45,1.44.57,4.6-.29,6.03,1.15,1.72,1.44,4.02,6.89,6.89,10.92.57,1.15,1.72,4.31,1.72,5.17s-1.15,3.16-2.01,3.73c-2.3,1.15-8.33,3.16-10.05,3.16h-14.36ZM2438.94,440.02c-2.01,0-4.31-5.46-4.31-5.75,0-.86,2.59-8.62,3.16-12.06.57-2.87-.58-8.9,2.01-11.78,1.15-.86,4.31-2.01,5.17-2.01,1.44,0,2.59,5.17,2.59,5.46,0,.57-1.72,14.65-3.73,20.68,0,.86-4.02,5.46-4.88,5.46ZM2477.72,389.17c-.29-2.3-2.01-6.61-3.73-8.9.86-1.72.29-11.78-5.46-11.78-2.87,0-5.74.86-5.74,3.16,0,.86,1.44,6.03,1.44,6.89,0,3.45-5.17,9.19-6.89,12.35-1.44,0-3.73.29-6.61-.29-1.72-.57-5.46-3.45-5.46-4.31s.86-2.01.57-2.59c0-1.15-.57-2.58,0-3.73.57-1.44,6.32-6.61,6.32-8.9,0-.86-2.01-8.04-2.01-8.91s1.44-8.62,3.16-12.64c.86-1.72,4.31-4.02,6.32-6.03,1.15-.86,1.72-3.73,3.45-5.17,1.72-1.15,5.46-1.44,6.32-1.44.57,0,5.17,4.02,6.61,6.61.57,1.72,1.15,8.04,2.3,12.93.29,1.15,2.59,3.45,3.16,5.46.86,1.72,2.01,6.03,2.3,9.19.57,2.58.29,6.89,4.02,9.19.29,2.01.86,4.31,2.3,6.61.57.57,2.3,1.72,2.87,2.59.57.86,1.72,9.77,1.72,12.35,0,.86-.58,3.16-.86,4.6-3.73-1.44-8.33-2.87-12.35-4.6-3.45-4.02-3.16-9.19-3.73-12.64Z"/>
    <path class="st2" d="M2595.5,525.33c-7.18.29-8.33,0-18.96-6.89-.58-.29-1.15-2.01-1.15-2.59-.29-1.15-.57-4.02-.57-4.88,0-6.03.57-6.32,8.04-12.35,1.72-1.44,19.25-7.47,21.26-7.47h10.92c.57,0,3.45-.86,4.88-1.44,1.15-.86,2.01-2.59,2.3-4.02,1.15-6.03,1.44-19.25,1.44-24.42l.29-24.42c0-.57.57-1.72.57-2.59.29-2.3.58-6.03.58-8.33.29-1.15,1.15-4.31,1.44-6.03.29-2.3-.86-5.17-.57-7.18.57-3.16,2.58-8.04,2.58-8.91,0-7.47-3.45-10.34-3.45-14.36,0-.86,2.58-9.77,2.58-10.34,0-.86-2.3-5.74-2.3-6.89,0-.86,1.72-10.05,1.72-11.2,0-.86-.29-6.61-1.44-9.19-.86-2.59-5.74-2.87-8.33-3.45-3.45-.57-9.48-1.44-10.34-1.44-2.01,0-11.49,2.01-11.49,2.01-2.87,0-10.92-4.31-12.64-5.75-.86-.86-1.15-3.45-1.15-4.31,0-.57.29-6.32,1.44-8.04.29-.57,2.01-1.44,2.87-2.3,7.18-4.88,14.36-6.61,21.26-6.61.86,0,4.31,2.3,6.32,2.87,1.72.57,5.17.86,6.32.86.57,0,4.6-.86,5.46-.86,1.15,0,5.74,2.3,6.89,2.3.86,0,3.73-.29,4.6-.29s13.5,1.15,20.11,1.72c1.44,0,4.6,1.44,5.75,1.44.86,0,10.91-1.72,11.78-1.72s5.46,1.72,6.32,1.72,4.02-.57,4.88-.57c8.04,0,16.95,2.3,23.84,4.02,3.16.86,8.9,2.01,14.36,5.74,1.44,1.15,5.46,5.46,8.33,8.91.86,1.44,3.16,4.31,4.31,6.61.86,2.3,2.01,5.74,2.59,8.33.57,3.45,0,6.89.57,10.34,0,.86.86,1.44,1.15,2.3.86,1.72,1.15,5.46,1.15,6.61,0,.86-.58,3.73-1.44,5.46-4.02,6.89-1.15,12.06-5.17,16.66-.86.86-2.87.86-4.31,2.01-.86.86-2.01,2.87-2.01,3.73,0,2.3,5.46,7.47,6.61,9.19.86,1.15,1.72,4.31,2.87,4.88,8.04,6.32,8.9,10.05,13.5,15.22.57.57,1.72,2.01,1.72,3.16.57,2.87,0,6.61,0,10.05,0,1.15.86,3.16,1.15,5.17.86,5.46,1.15,15.8,1.15,16.66,0,7.47.29,7.18-2.3,16.66,0,.57-1.44,1.72-2.3,2.59-1.72,2.01-4.02,3.73-5.74,5.17-1.44,1.15-2.59,3.45-4.02,5.17-2.01,2.01-4.02,4.88-6.89,6.32-9.77,4.6-20.11,8.91-29.59,11.49-1.44.29-4.6.57-6.89.57-2.01.29-4.6,1.44-5.46,1.44s-1.44-.57-2.3-.57c-2.3-.57-6.03-.86-7.18-.86-.58,0-5.17.57-7.18.57h-41.36l-39.35,2.3ZM2725.91,376.82c0-7.47,0-4.88-5.46-16.37-.57-.86-1.44-2.01-2.01-2.59-3.45-4.6-8.9-6.61-13.21-8.62-2.3-1.15-5.74-3.73-6.61-3.73s-8.04,1.15-8.91,1.15-5.17-.57-7.18-1.15c-.86-.29-1.15-.86-2.01-.86s-5.17,1.15-6.03,1.15-8.04-1.15-9.19-1.15c-7.18,0-2.87,0-9.77,2.3-2.3.86-6.89,1.44-8.62,4.88-2.01,3.73-1.44,10.34-1.44,15.22,0,4.02-.86,11.2-.86,12.06s1.15,6.61,1.72,9.19c.57,4.02-.29,8.91.57,12.93.29,1.15,1.15,2.87,2.3,3.45,2.01,1.15,4.6.86,6.61,1.15,2.01.29,6.03,2.3,6.89,2.3s7.47-1.15,8.33-1.15c1.15,0,3.45.57,4.31.57s3.73-.29,5.46-.57c1.72-.29,3.73-1.44,4.88-1.72,6.03-.57,11.2.57,18.1-3.45,4.02-2.3,10.92-4.02,14.65-10.63,6.32-10.92,7.47-6.61,7.47-14.36ZM2652.95,468.46c.29,1.72.86,3.16.86,4.88,0,2.59-.29,5.46.29,7.76,1.15,3.45,3.16,7.76,4.31,10.34.57,1.72,3.45,4.31,4.31,4.31s10.91-1.44,11.78-1.44,5.17,1.15,6.03,1.15,4.31-1.15,5.74-1.15c4.88-.29,8.04.29,15.22-2.87,2.87-1.44,8.33-2.01,9.77-2.59,1.72-.86,3.16-2.87,3.73-3.73.86-1.15,1.15-3.16,1.72-4.02.57-.57,1.72-.86,2.3-1.15,1.72-.86,4.02-1.15,5.46-3.16,1.72-2.87,3.45-6.03,4.31-8.62.86-2.01,1.44-5.74,1.44-6.61,0-1.72-3.45-14.65-4.6-16.09-4.31-4.31-10.34-9.48-14.36-11.49-2.01-1.15-5.46-.29-6.32-.57-2.3-1.15-4.02-3.45-5.74-4.02s-4.6-.57-5.46-.57-5.74,1.15-6.89,1.15c-.86,0-3.45-1.72-5.46-2.59-1.44-.29-4.31,0-5.17,0s-9.48,0-14.08.57c-2.59.29-5.74,1.15-7.47,2.87-1.15,1.15-2.87,5.74-2.87,10.63,0,1.44.29,4.31.57,6.32l.57,20.68Z"/>
  </g>
</svg>