<?xml version="1.0" encoding="UTF-8"?>
<svg id="Layer_1" xmlns="http://www.w3.org/2000/svg" version="1.1" viewBox="0 0 160 160">
  <!-- Generator: Adobe Illustrator 30.2.1, SVG Export Plug-In . SVG Version: 2.1.1 Build 1)  -->
  <defs>
    <style>
      .st0 {
        display: none;
        fill: #e75625;
      }

      .st1 {
        fill: #171d33;
      }
    </style>
  </defs>
  <path class="st0" d="M130.98,82.27c0,.53-.1,1.92-.21,2.98-1.65,2.1-2.17,5.25-3.52,7.35-.72,1.05-1.96,1.05-2.89,1.22-.83.35-2.18,0-3.01,1.05-3.41,3.85-5.28,1.93-9.21,4.2-.41.18-.93,1.4-1.35,1.58-1.44.87-3.1,1.4-4.96,2.62-1.14.7-4.97,1.93-7.66,2.98-.73.35-1.87,0-2.59.35-1.04.7-4.97,3.67-7.46,5.08-.72.34-1.65.17-2.69.7-1.76.87-3.62,2.62-5.48,3.67-.78.38-1.62.55-2.45.79-.28.51-.59,1.04-.94,1.61-.33.68-.99.65-2.51,1.82-.12.08-1.9,1.39-2.06,1.46-.88.38-.99.29-1.42.29-.5,0-2.89.8-3.4.8h-6.04c-.59,0-1.39-.16-2.28-.41-2.64-.78-6.03-2.45-6.79-3.45-1.68-2.86-3.53-4.87-4.36-7.39-.51-1.51-1.51-7.05-1.51-7.56v-13.6l1.84-8.06-.5-12.76c0-.5,1-7.05,1-7.56,0-1.51-1.17-2.18-1.17-5.53s1.01-7.39,2.35-12.26c.17-1.01.84-2.69,1.68-3.86.67-.68,2.69-1.18,3.53-1.51,2.49-.88,3.78-.83,5.17-.81.48,0,.98,0,1.54-.03.84,0,2.35-.85,2.86-.85s3.02,1.01,4.37,1.52c.83.33,2,.33,3.18,1,.92.62,2.04,1.3,3.11,2.08.64,1.14,1.5,2.02,2.43,2.81,1.39,1.18,2.96,2.14,4.24,3.37.72.7,1.45,3.15,2.38,3.68.83.35,2.9.17,4.24.7.32.18.63.87,1.14,1.05,1.56.7,3.42,1.4,5.18,2.1.31.18.93-.35,1.24,0,.62.52,1.45,2.45,2.38,3.5.11.17.62,0,.93.17.42.18.94.7,1.45,1.06,3.11,1.4,7.87,1.05,10.98,2.62.62.35,3.41,4.2,5.28,6.3.62.7,1.76.53,2.79.18,1.45-.53,2.38,0,3.62.17.21.18.73.53.94.7,1.24,1.75,2.27,3.68,3.41,4.73.73.7,1.86.7,2.59,2.8.41.87.62,3.85.62,4.55h0Z"/>
  <path class="st1" d="M90.82,103.58h-21.63L25.43,56.42h22.84l32.21,36.46,32.21-36.46h21.87l-43.75,47.15h.01Z"/>
</svg>