<?xml version="1.0" encoding="UTF-8"?>
<svg id="Layer_1" xmlns="http://www.w3.org/2000/svg" version="1.1" viewBox="0 0 160 160">
  <!-- Generator: Adobe Illustrator 30.2.1, SVG Export Plug-In . SVG Version: 2.1.1 Build 1)  -->
  <defs>
    <style>
      .st0 {
        display: none;
        fill: #e75625;
      }

      .st1 {
        fill: #e75625;
      }
    </style>
  </defs>
  <path class="st0" d="M36.8,69.42c0-.51,1-7.05,1-7.56,0-1.51-1.17-2.18-1.17-5.54s1-7.39,2.34-12.26c.17-1.01.84-2.69,1.68-3.86.67-.68,2.69-1.18,3.53-1.51,3.36-1.18,4.53-.68,6.71-.84.84,0,2.35-.84,2.86-.84s3.02,1,4.37,1.51c.83.33,2.01.33,3.19,1,1.51,1.01,3.53,2.19,5.04,3.7.51.51.51,1.67.84,2.35,1,1.51,1.18,4.03,1.51,5.54.33,1.18,1.34,2.86,1.34,3.36s-1,3.19-1.34,5.03c-.33,2.52-.67,6.72-.67,7.23,0,.67.84,6.55.84,7.05s-.68,3.53-.84,5.37c0,1.35.33,3.19.16,4.7-.16.51-.5,1.85-.5,2.35,0,.67,1.18,6.21,1.18,6.88,0,.51-.51,3.19-.51,3.69,0,.68.67,3.53.67,4.03s-.33,3.53-.33,4.2c0,.33.17,3.53.17,4.03,0,3.19-.68,5.37-3.03,9.24-.33.68-2.34,2.69-3.86,3.86-.83.51-2.52.84-3.02.84s-2.01-.33-2.52-.33h-6.04c-2.35,0-8.06-2.52-9.07-3.86-1.67-2.86-3.53-4.87-4.36-7.39-.51-1.51-1.51-7.05-1.51-7.55v-13.6l1.85-8.06-.51-12.76h0Z"/>
  <path class="st0" d="M121.69,90.58c0,.51-1,7.05-1,7.56,0,1.51,1.17,2.18,1.17,5.54s-1,7.39-2.34,12.26c-.17,1.01-.84,2.69-1.68,3.86-.67.68-2.69,1.18-3.53,1.51-3.36,1.18-4.53.68-6.71.84-.84,0-2.35.84-2.86.84s-3.02-1-4.37-1.51c-.83-.33-2.01-.33-3.19-1-1.51-1.01-3.53-2.19-5.04-3.7-.51-.51-.51-1.67-.84-2.35-1-1.51-1.18-4.03-1.51-5.54-.33-1.18-1.34-2.86-1.34-3.36s1-3.19,1.34-5.03c.33-2.52.67-6.72.67-7.23,0-.67-.84-6.55-.84-7.05s.68-3.53.84-5.37c0-1.35-.33-3.19-.16-4.7.16-.51.5-1.85.5-2.35,0-.67-1.18-6.21-1.18-6.88,0-.51.51-3.19.51-3.69,0-.68-.67-3.53-.67-4.03s.33-3.53.33-4.2c0-.33-.17-3.53-.17-4.03,0-3.19.68-5.37,3.03-9.24.33-.68,2.34-2.69,3.86-3.86.83-.51,2.52-.84,3.02-.84s2.01.33,2.52.33h6.04c2.35,0,8.06,2.52,9.07,3.86,1.67,2.86,3.53,4.87,4.36,7.39.51,1.51,1.51,7.05,1.51,7.55v13.6l-1.85,8.06.51,12.76Z"/>
  <path class="st1" d="M90.43,37.98h30.84v84.99h-30.84V37.98Z"/>
  <path class="st1" d="M37.33,37.49h30.84v84.99h-30.84V37.49Z"/>
</svg>