<!-- created by svgstack.com | Attribution is required. --><svg width="201" height="201" viewBox="0 0 201 201" fill="none" xmlns="http://www.w3.org/2000/svg"><g clip-path="url(#clip0_105_908)"><path d="M0.920166 100.277C0.920166 141.225 25.5436 176.403 60.7788 191.87C60.4975 184.887 60.7288 176.504 62.5194 168.906C64.442 160.788 75.3866 114.416 75.3866 114.416C75.3866 114.416 72.192 108.031 72.192 98.5939C72.192 83.7744 80.7811 72.7064 91.478 72.7064C100.574 72.7064 104.969 79.5384 104.969 87.7197C104.969 96.8634 99.1366 110.541 96.1374 123.209C93.6319 133.817 101.456 142.469 111.921 142.469C130.868 142.469 143.629 118.134 143.629 89.3009C143.629 67.3837 128.867 50.9791 102.018 50.9791C71.6834 50.9791 52.7858 73.6009 52.7858 98.8697C52.7858 107.582 55.3545 113.726 59.378 118.484C61.228 120.669 61.485 121.548 60.8155 124.057C60.3358 125.897 59.2342 130.327 58.778 132.082C58.1124 134.615 56.06 135.52 53.7709 134.585C39.7991 128.881 33.292 113.581 33.292 96.3806C33.292 67.9736 57.2499 33.9111 104.762 33.9111C142.942 33.9111 168.071 61.5392 168.071 91.1962C168.071 130.425 146.262 159.732 114.113 159.732C103.317 159.732 93.1616 153.896 89.6827 147.267C89.6827 147.267 83.8772 170.308 82.6475 174.757C80.5272 182.467 76.3772 190.174 72.5827 196.18C81.5764 198.835 91.0772 200.281 100.924 200.281C156.146 200.281 200.921 155.508 200.921 100.277C200.921 45.0478 156.146 0.275146 100.924 0.275146C45.6967 0.275146 0.920166 45.0478 0.920166 100.277Z" fill="#CB1F27"/></g><defs><clipPath id="clip0_105_908"><rect width="200" height="200" fill="white" transform="translate(0.920166 0.275146)"/></clipPath></defs></svg> 