<!-- created by svgstack.com | Attribution is required. --><svg width="201" height="201" viewBox="0 0 201 201" fill="none" xmlns="http://www.w3.org/2000/svg"><g clip-path="url(#clip0_105_1115)"><path d="M100.92 200.275C156.148 200.275 200.92 155.504 200.92 100.275C200.92 45.0467 156.148 0.275146 100.92 0.275146C45.6914 0.275146 0.919922 45.0467 0.919922 100.275C0.919922 155.504 45.6914 200.275 100.92 200.275Z" fill="#FF4500"/><path d="M167.62 100.275C167.64 101.645 167.47 103.013 167.11 104.335C166.75 105.658 166.205 106.925 165.49 108.095C164.778 109.265 163.903 110.33 162.893 111.258C161.883 112.185 160.748 112.965 159.52 113.575C159.548 113.94 159.57 114.308 159.583 114.675C159.613 115.408 159.613 116.142 159.583 116.875C159.57 117.243 159.548 117.61 159.52 117.975C159.52 140.375 133.42 158.575 101.22 158.575C69.0204 158.575 42.9204 140.375 42.9204 117.975C42.8929 117.61 42.8704 117.243 42.8579 116.875C42.8278 116.142 42.8278 115.408 42.8579 114.675C42.8704 114.308 42.8929 113.94 42.9204 113.575C40.9973 112.691 39.2893 111.4 37.9144 109.791C36.5396 108.181 35.5308 106.293 34.9579 104.255C34.386 102.217 34.2642 100.078 34.6009 97.9881C34.9376 95.8979 35.7248 93.9059 36.9079 92.1501C38.09 90.3947 39.6399 88.9175 41.45 87.821C43.2601 86.7244 45.2872 86.0349 47.3904 85.8001C49.494 85.5644 51.6236 85.7888 53.6318 86.4579C55.64 87.127 57.4787 88.2248 59.0204 89.6751C61.8825 87.7352 64.8812 86.0049 67.9929 84.4977C71.1054 82.9927 74.3229 81.7126 77.6204 80.6726C80.9179 79.6326 84.2879 78.8351 87.7004 78.2826C91.1129 77.7301 94.5629 77.4276 98.0204 77.3751L105.42 42.6751C105.503 42.2726 105.665 41.8926 105.898 41.5526C106.128 41.2151 106.425 40.9251 106.768 40.7026C107.113 40.4801 107.498 40.3276 107.903 40.2526C108.305 40.1801 108.72 40.1876 109.12 40.2751L133.62 45.1751C136.093 40.9276 141.283 39.1076 145.865 40.8776C150.448 42.6476 153.068 47.4851 152.043 52.2901C151.02 57.0951 146.655 60.4451 141.75 60.1926C136.843 59.9401 132.845 56.1601 132.32 51.2751L110.92 46.7751L104.42 77.9751C107.835 78.0476 111.243 78.3676 114.613 78.9301C121.362 80.0551 127.912 82.1483 134.063 85.1451C137.135 86.6401 140.095 88.3546 142.92 90.2751C144.952 88.3247 147.505 87.004 150.27 86.4726C153.036 85.9394 155.897 86.2181 158.508 87.2751C161.119 88.3317 163.369 90.1211 164.985 92.4276C166.603 94.7344 167.518 97.4598 167.62 100.275V100.275ZM68.3804 114.103C68.8854 115.315 69.6204 116.418 70.5504 117.345C71.4779 118.275 72.5804 119.01 73.7929 119.515C75.0066 120.017 76.3071 120.275 77.6204 120.275C81.6654 120.275 85.3104 117.838 86.8604 114.103C88.4079 110.365 87.5504 106.065 84.6904 103.205C81.8304 100.345 77.5304 99.4876 73.7929 101.035C70.0579 102.585 67.6204 106.23 67.6204 110.275C67.6204 111.588 67.8779 112.888 68.3804 114.103V114.103ZM125.655 138.108C126.168 137.608 126.46 136.925 126.47 136.21C126.48 135.493 126.203 134.803 125.703 134.29C125.203 133.778 124.52 133.485 123.805 133.475C123.088 133.465 122.398 133.743 121.82 134.175C120.317 135.254 118.724 136.203 117.06 137.013C115.396 137.823 113.667 138.491 111.89 139.01C110.115 139.528 108.298 139.895 106.46 140.108C104.62 140.32 102.768 140.375 100.92 140.275C99.0754 140.358 97.2254 140.283 95.3929 140.053C93.56 139.825 91.75 139.44 89.9829 138.903C88.2129 138.368 86.4954 137.683 84.8429 136.858C83.1904 136.033 81.6104 135.068 80.1204 133.975C79.6029 133.55 78.9454 133.333 78.2754 133.365C77.6054 133.398 76.9729 133.68 76.4979 134.153C76.0254 134.628 75.7429 135.26 75.7104 135.93C75.6779 136.6 75.8954 137.258 76.3204 137.775C78.0779 139.1 79.9454 140.27 81.9029 141.275C83.8604 142.28 85.9029 143.113 88.0029 143.768C90.1029 144.423 92.2554 144.895 94.4379 145.183C96.6204 145.468 98.8229 145.565 101.02 145.475C103.218 145.565 105.42 145.468 107.603 145.183C111.974 144.608 116.214 143.286 120.138 141.275C122.095 140.27 123.963 139.1 125.72 137.775L125.655 138.108ZM123.82 121.075C125.175 121.09 126.52 120.828 127.773 120.308C129.025 119.785 130.158 119.015 131.103 118.043C132.048 117.07 132.783 115.915 133.268 114.648C133.753 113.382 133.975 112.03 133.92 110.675C133.92 106.63 131.483 102.985 127.748 101.435C124.01 99.8877 119.71 100.745 116.85 103.605C113.99 106.465 113.133 110.765 114.68 114.503C116.23 118.238 119.875 120.675 123.92 120.675L123.82 121.075Z" fill="white"/></g><defs><clipPath id="clip0_105_1115"><rect width="200" height="200" fill="white" transform="translate(0.919922 0.275146)"/></clipPath></defs></svg> 